<svg width="24" height="24" viewBox="0 0 24 24" fill="none" xmlns="http://www.w3.org/2000/svg">
<g clip-path="url(#clip0_286_161)">
<path d="M23.0769 6.55378V17.5107L22.8554 18.6922C22.3108 20.6861 20.7138 22.283 18.7292 22.8461L17.5108 23.0769H6.55384C3.48 22.8092 1.14461 20.4092 0.987689 17.3169C0.803074 13.6799 1.08923 9.83994 1.03384 6.19378C1.39384 3.34147 3.8123 1.16301 6.66461 0.987628C10.1631 0.77532 13.8462 1.14455 17.3631 0.987628C20.3723 1.15378 22.8646 3.52609 23.0769 6.55378Z" stroke="white" stroke-miterlimit="10"/>
<path d="M11.6769 7.14474C15.6738 6.87705 18.2769 11.3632 16.0431 14.7047C14.1231 17.5755 9.83999 17.5663 7.93845 14.6863C5.87999 11.5663 7.97537 7.39397 11.6769 7.14474Z" stroke="white" stroke-miterlimit="10"/>
<path d="M18.1754 4.29217C19.92 4.22756 20.0215 6.88602 18.2954 6.9691C16.5231 7.05217 16.4123 4.35679 18.1754 4.29217Z" stroke="white" stroke-miterlimit="10"/>
</g>
<defs>
<clipPath id="clip0_286_161">
<rect width="24" height="24" fill="white"/>
</clipPath>
</defs>
</svg>
