<svg width="25" height="24" viewBox="0 0 25 24" fill="none" xmlns="http://www.w3.org/2000/svg">
<path d="M17 7C18.8565 7 20.637 7.77802 21.9497 9.1629C23.2625 10.5478 24 12.4261 24 14.3846V23H19.3333V14.3846C19.3333 13.7318 19.0875 13.1057 18.6499 12.644C18.2123 12.1824 17.6188 11.9231 17 11.9231C16.3812 11.9231 15.7877 12.1824 15.3501 12.644C14.9125 13.1057 14.6667 13.7318 14.6667 14.3846V23H10V14.3846C10 12.4261 10.7375 10.5478 12.0503 9.1629C13.363 7.77802 15.1435 7 17 7Z" stroke="white" stroke-linecap="round" stroke-linejoin="round"/>
<path d="M6 9H1V23H6V9Z" stroke="white" stroke-linecap="round" stroke-linejoin="round"/>
<path d="M3.5 6C4.88071 6 6 4.88071 6 3.5C6 2.11929 4.88071 1 3.5 1C2.11929 1 1 2.11929 1 3.5C1 4.88071 2.11929 6 3.5 6Z" stroke="white" stroke-linecap="round" stroke-linejoin="round"/>
</svg>
