<svg width="30" height="24" viewBox="0 0 30 24" fill="none" xmlns="http://www.w3.org/2000/svg">
<g clip-path="url(#clip0_286_165)">
<path d="M0.945694 14.6769C0.891149 12.9692 0.891149 11.0769 0.945694 9.35999C1.06388 5.39999 1.20933 1.59691 5.85479 1.18153C9.45479 0.867682 13.3275 0.904606 16.9457 0.95999C19.3093 0.996913 21.7911 0.978452 24.1366 1.19076C28.8275 1.61537 28.8548 5.17845 28.9911 9.16614C29.0911 12.0461 29.3457 17.6492 28.2366 20.2061C26.9184 23.2246 23.5821 22.8 20.9002 22.9108C16.1457 23.1046 10.9821 23.2154 6.24569 22.7908C1.20933 22.3477 1.08206 19.1538 0.945694 14.6769Z" stroke="white" stroke-miterlimit="10"/>
<path d="M11.973 8.82474V14.5755C11.973 15.2771 12.7093 15.7294 13.3184 15.4063L18.5366 12.6278C19.182 12.2863 19.1911 11.3447 18.5548 10.9847L13.3366 8.01244C12.7275 7.66167 11.9639 8.11398 11.9639 8.82474H11.973Z" stroke="white" stroke-miterlimit="10"/>
</g>
<defs>
<clipPath id="clip0_286_165">
<rect width="30" height="24" fill="white"/>
</clipPath>
</defs>
</svg>
