<svg width="24" height="25" viewBox="0 0 24 25" fill="none" xmlns="http://www.w3.org/2000/svg">
<g clip-path="url(#clip0_368_896)">
<path d="M23.5773 10.8521L21.4443 7.29813L12.0003 10.4461L2.55629 7.29813L0.442287 10.8191C-0.032713 11.6101 -0.120713 12.5601 0.199287 13.4251C0.509287 14.2641 1.16229 14.9131 2.00029 15.2181V21.1521L12.0003 24.4851L22.0003 21.1521V15.2191C22.8463 14.9231 23.5073 14.2731 23.8183 13.4311C24.1343 12.5751 24.0473 11.6341 23.5773 10.8511V10.8521ZM2.15729 11.8491L3.44429 9.70313L10.5013 12.0561L8.96829 14.6111C8.72529 15.0171 8.23929 15.1941 7.79429 15.0461L2.71329 13.3531C2.41629 13.2531 2.18429 13.0281 2.07529 12.7351C1.96629 12.4411 1.99629 12.1191 2.15729 11.8511V11.8491ZM4.00029 15.8871L7.16129 16.9411C7.47829 17.0471 7.80329 17.0981 8.12129 17.0981C9.15029 17.0981 10.1263 16.5671 10.6833 15.6391L11.0003 15.1101V22.0461L4.00029 19.7121V15.8871ZM13.0003 22.0461V15.1101L13.3173 15.6391C13.8743 16.5671 14.8503 17.0981 15.8793 17.0981C16.1973 17.0981 16.5213 17.0471 16.8393 16.9411L20.0003 15.8881V19.7131L13.0003 22.0471V22.0461ZM21.9423 12.7391C21.8373 13.0241 21.6113 13.2431 21.3233 13.3401L16.2063 15.0451C15.7563 15.1921 15.2753 15.0171 15.0323 14.6101L13.4993 12.0551L20.5563 9.70213L21.8633 11.8811C22.0193 12.1411 22.0493 12.4531 21.9433 12.7381L21.9423 12.7391ZM7.16329 6.72613L5.04229 6.01913L10.5253 0.536133L13.2743 3.28513L14.4733 2.08613L18.5443 6.15713L16.4233 6.86413L14.4733 4.91413L11.2863 8.10113L9.16529 7.39413L11.8593 4.70013L10.5243 3.36513L7.16229 6.72713L7.16329 6.72613Z" fill="#3C3F47"/>
</g>
<defs>
<clipPath id="clip0_368_896">
<rect width="24" height="24" fill="white" transform="translate(0 0.5)"/>
</clipPath>
</defs>
</svg>
