<svg width="21" height="16" viewBox="0 0 21 16" fill="none" xmlns="http://www.w3.org/2000/svg">
<path fill-rule="evenodd" clip-rule="evenodd" d="M0.410156 1C0.410156 0.734784 0.4912 0.48043 0.635459 0.292893C0.779717 0.105357 0.975374 0 1.17939 0H19.6409C19.8449 0 20.0406 0.105357 20.1849 0.292893C20.3291 0.48043 20.4102 0.734784 20.4102 1C20.4102 1.26522 20.3291 1.51957 20.1849 1.70711C20.0406 1.89464 19.8449 2 19.6409 2H1.17939C0.975374 2 0.779717 1.89464 0.635459 1.70711C0.4912 1.51957 0.410156 1.26522 0.410156 1ZM0.410156 8C0.410156 7.73478 0.4912 7.48043 0.635459 7.29289C0.779717 7.10536 0.975374 7 1.17939 7H19.6409C19.8449 7 20.0406 7.10536 20.1849 7.29289C20.3291 7.48043 20.4102 7.73478 20.4102 8C20.4102 8.26522 20.3291 8.51957 20.1849 8.70711C20.0406 8.89464 19.8449 9 19.6409 9H1.17939C0.975374 9 0.779717 8.89464 0.635459 8.70711C0.4912 8.51957 0.410156 8.26522 0.410156 8ZM1.17939 14C0.975374 14 0.779717 14.1054 0.635459 14.2929C0.4912 14.4804 0.410156 14.7348 0.410156 15C0.410156 15.2652 0.4912 15.5196 0.635459 15.7071C0.779717 15.8946 0.975374 16 1.17939 16H19.6409C19.8449 16 20.0406 15.8946 20.1849 15.7071C20.3291 15.5196 20.4102 15.2652 20.4102 15C20.4102 14.7348 20.3291 14.4804 20.1849 14.2929C20.0406 14.1054 19.8449 14 19.6409 14H1.17939Z" fill="white"/>
</svg>
