<svg width="40" height="40" viewBox="0 0 40 40" fill="none" xmlns="http://www.w3.org/2000/svg">
<g clip-path="url(#clip0_658_13)">
<path d="M33.8472 4.93016H36.1849C38.2141 4.93016 39.1881 5.91619 39.1881 7.1323V36.9926C39.1881 38.2087 38.2141 39.1947 37.0128 39.1947H2.98685C1.78555 39.1947 0.811523 38.2087 0.811523 36.9926V7.11586C0.811523 5.89976 1.78555 4.91373 2.98685 4.91373H5.95763" stroke="#3C3F47" stroke-miterlimit="10"/>
<path d="M21.7046 4.93015H30.3085" stroke="#3C3F47" stroke-miterlimit="10"/>
<path d="M9.54541 4.93015H18.2954" stroke="#3C3F47" stroke-miterlimit="10"/>
<path d="M20.0162 0.821686H19.9837C19.0513 0.821686 18.2954 1.58689 18.2954 2.53081V7.93754C18.2954 8.88146 19.0513 9.64666 19.9837 9.64666H20.0162C20.9486 9.64666 21.7045 8.88146 21.7045 7.93754V2.53081C21.7045 1.58689 20.9486 0.821686 20.0162 0.821686Z" stroke="#3C3F47" stroke-miterlimit="10"/>
<path d="M7.67879 0.821686H7.64632C6.71389 0.821686 5.95801 1.58689 5.95801 2.53081V7.93754C5.95801 8.88146 6.71389 9.64666 7.64632 9.64666H7.67879C8.61122 9.64666 9.3671 8.88146 9.3671 7.93754V2.53081C9.3671 1.58689 8.61122 0.821686 7.67879 0.821686Z" stroke="#3C3F47" stroke-miterlimit="10"/>
<path d="M32.3375 0.821686H32.305C31.3726 0.821686 30.6167 1.58689 30.6167 2.53081V7.93754C30.6167 8.88146 31.3726 9.64666 32.305 9.64666H32.3375C33.2699 9.64666 34.0258 8.88146 34.0258 7.93754V2.53081C34.0258 1.58689 33.2699 0.821686 32.3375 0.821686Z" stroke="#3C3F47" stroke-miterlimit="10"/>
<path d="M8.3119 35.6286C10.3023 35.6286 11.9158 33.9952 11.9158 31.9803C11.9158 29.9654 10.3023 28.332 8.3119 28.332C6.32153 28.332 4.70801 29.9654 4.70801 31.9803C4.70801 33.9952 6.32153 35.6286 8.3119 35.6286Z" stroke="#3C3F47" stroke-miterlimit="10"/>
<path d="M19.9999 35.6286C21.9903 35.6286 23.6038 33.9952 23.6038 31.9803C23.6038 29.9654 21.9903 28.332 19.9999 28.332C18.0095 28.332 16.396 29.9654 16.396 31.9803C16.396 33.9952 18.0095 35.6286 19.9999 35.6286Z" stroke="#3C3F47" stroke-miterlimit="10"/>
<path d="M31.6723 35.6286C33.6626 35.6286 35.2761 33.9952 35.2761 31.9803C35.2761 29.9654 33.6626 28.332 31.6723 28.332C29.6819 28.332 28.0684 29.9654 28.0684 31.9803C28.0684 33.9952 29.6819 35.6286 31.6723 35.6286Z" stroke="#3C3F47" stroke-miterlimit="10"/>
<path d="M11.9158 20.871C11.9158 22.8923 10.3087 24.5193 8.3119 24.5193C6.31515 24.5193 4.70801 22.8923 4.70801 20.871C4.70801 18.8496 6.20151 17.3541 8.08463 17.2227" stroke="#3C3F47" stroke-linecap="round" stroke-linejoin="round"/>
<path d="M19.9999 24.5193C21.9903 24.5193 23.6038 22.8859 23.6038 20.871C23.6038 18.8561 21.9903 17.2227 19.9999 17.2227C18.0095 17.2227 16.396 18.8561 16.396 20.871C16.396 22.8859 18.0095 24.5193 19.9999 24.5193Z" stroke="#3C3F47" stroke-miterlimit="10"/>
<path d="M31.6723 24.5193C33.6626 24.5193 35.2761 22.8859 35.2761 20.871C35.2761 18.8561 33.6626 17.2227 31.6723 17.2227C29.6819 17.2227 28.0684 18.8561 28.0684 20.871C28.0684 22.8859 29.6819 24.5193 31.6723 24.5193Z" stroke="#3C3F47" stroke-miterlimit="10"/>
<path d="M7.53223 20.4273L8.31145 21.1832L12.1264 17.3213" stroke="#3C3F47" stroke-linecap="round" stroke-linejoin="round"/>
<path d="M1.08789 13.8537H32.3379" stroke="#3C3F47" stroke-linecap="round" stroke-linejoin="round"/>
<path d="M35.6167 14.6919C36.0561 14.6919 36.4122 14.3314 36.4122 13.8866C36.4122 13.4419 36.0561 13.0814 35.6167 13.0814C35.1774 13.0814 34.8213 13.4419 34.8213 13.8866C34.8213 14.3314 35.1774 14.6919 35.6167 14.6919Z" fill="#3C3F47"/>
</g>
<defs>
<clipPath id="clip0_658_13">
<rect width="40" height="40" fill="white"/>
</clipPath>
</defs>
</svg>
