<svg width="22" height="25" viewBox="0 0 22 25" fill="none" xmlns="http://www.w3.org/2000/svg">
<path d="M0.5 22.1V9.1473L11 1.12911L21.5 9.1473V22.1C21.5 22.6009 21.2974 23.0832 20.9337 23.4403C20.5698 23.7976 20.0742 24 19.5556 24H2.44444C1.92581 24 1.43023 23.7976 1.06626 23.4403L0.715961 23.7971L1.06626 23.4403C0.702589 23.0832 0.5 22.6009 0.5 22.1Z" stroke="#3C3F47" stroke-linecap="round" stroke-linejoin="round"/>
<mask id="path-2-inside-1_343_821" fill="white">
<path d="M7.3335 24.5V12.5H14.6668V24.5"/>
</mask>
<path d="M6.3335 24.5C6.3335 25.0523 6.78121 25.5 7.3335 25.5C7.88578 25.5 8.3335 25.0523 8.3335 24.5H6.3335ZM7.3335 12.5V11.5C6.78121 11.5 6.3335 11.9477 6.3335 12.5H7.3335ZM14.6668 12.5H15.6668C15.6668 11.9477 15.2191 11.5 14.6668 11.5V12.5ZM13.6668 24.5C13.6668 25.0523 14.1145 25.5 14.6668 25.5C15.2191 25.5 15.6668 25.0523 15.6668 24.5H13.6668ZM8.3335 24.5V12.5H6.3335V24.5H8.3335ZM7.3335 13.5H14.6668V11.5H7.3335V13.5ZM13.6668 12.5V24.5H15.6668V12.5H13.6668Z" fill="#3C3F47" mask="url(#path-2-inside-1_343_821)"/>
</svg>
