<svg width="24" height="25" viewBox="0 0 24 25" fill="none" xmlns="http://www.w3.org/2000/svg">
<g clip-path="url(#clip0_366_752)">
<path d="M13.9999 18.5001H15.9999C17.1029 18.5001 17.9999 17.6031 17.9999 16.5001V14.5001C17.9999 13.3971 17.1029 12.5001 15.9999 12.5001H13.9999C12.8969 12.5001 11.9999 13.3971 11.9999 14.5001V16.5001C11.9999 17.6031 12.8969 18.5001 13.9999 18.5001ZM13.9999 14.5001H15.9999V16.5001H13.9999V14.5001ZM23.7439 22.0651C24.1129 22.4761 24.0789 23.1081 23.6679 23.4771C22.9349 24.1371 21.9869 24.5001 20.9999 24.5001C19.8699 24.5001 18.7789 24.0211 17.9999 23.2641C17.2209 24.0211 16.1299 24.5001 14.9999 24.5001C13.8699 24.5001 12.7789 24.0211 11.9999 23.2641C11.2209 24.0211 10.1299 24.5001 8.99989 24.5001C7.86989 24.5001 6.77889 24.0211 5.99989 23.2641C5.22089 24.0211 4.13089 24.5001 2.99989 24.5001C2.01289 24.5001 1.06489 24.1371 0.331887 23.4771C-0.0791132 23.1081 -0.112113 22.4761 0.256887 22.0651C0.625887 21.6551 1.25889 21.6211 1.66889 21.9901C2.03489 22.3191 2.50789 22.5001 3.00089 22.5001C3.89089 22.5001 4.79389 21.9151 5.05789 21.1671C5.38089 20.3101 6.61989 20.3101 6.94389 21.1671C7.20789 21.9151 8.11089 22.5001 9.00089 22.5001C9.89089 22.5001 10.7939 21.9151 11.0579 21.1671C11.3809 20.3101 12.6209 20.3111 12.9439 21.1671C13.2079 21.9151 14.1109 22.5001 15.0009 22.5001C15.8909 22.5001 16.7939 21.9141 17.0589 21.1671C17.3819 20.3111 18.6209 20.3111 18.9439 21.1671C19.2089 21.9151 20.1129 22.5001 21.0019 22.5001C21.4939 22.5001 21.9679 22.3191 22.3339 21.9901C22.7419 21.6201 23.3739 21.6541 23.7459 22.0651H23.7439ZM21.7969 9.26111L17.2369 6.18411C15.8789 5.26811 14.1229 5.26711 12.7619 6.18411L11.6649 6.92411C11.3749 6.25511 10.9079 5.66511 10.2919 5.23511C10.0269 5.05011 9.99389 4.75211 9.99789 4.59111C10.0109 4.04511 9.90889 3.50011 9.69489 2.97111C9.23189 1.82711 8.25689 0.957114 7.08589 0.644114C6.36689 0.453114 5.63289 0.452114 4.91389 0.644114C3.74289 0.957114 2.76789 1.82711 2.30489 2.97011C2.09089 3.49911 1.98889 4.04411 2.00189 4.58911C2.00489 4.75111 1.97189 5.04811 1.70789 5.23411C0.638887 5.98011 -0.000113207 7.20111 -0.000113207 8.49911C-0.0561132 9.14311 0.310887 9.96811 0.505887 10.5551C0.191887 11.1411 -0.00911321 11.8251 -0.000113207 12.4991C-0.000113207 14.7051 1.79389 16.4991 3.99989 16.4991C4.72589 16.4991 5.40889 16.3051 5.99989 15.9651V17.4991C5.99989 18.0511 6.44789 18.4991 6.99989 18.4991C7.55189 18.4991 7.99989 18.0511 7.99989 17.4991V13.4041C7.99989 12.4051 8.49389 11.4761 9.32189 10.9181L13.8819 7.84111C14.5619 7.38211 15.4389 7.38211 16.1179 7.84111L20.6779 10.9181C21.5059 11.4761 21.9999 12.4061 21.9999 13.4041V17.4991C21.9999 18.0511 22.4469 18.4991 22.9999 18.4991C23.5529 18.4991 23.9999 18.0511 23.9999 17.4991V13.4041C23.9999 11.7391 23.1759 10.1901 21.7969 9.25911V9.26111ZM8.20289 9.26111C7.06589 10.0281 6.31589 11.2181 6.08389 12.5431C5.84989 13.5831 5.17289 14.5221 3.99989 14.5001C2.89689 14.5001 1.99989 13.6031 1.99989 12.5001C1.99989 12.1921 2.07089 11.8971 2.22989 11.5831C2.39089 11.2741 2.76689 10.5501 2.21589 9.38911C2.07289 9.08811 1.99989 8.78811 1.99989 8.49911C1.99989 7.85411 2.31789 7.24611 2.85289 6.87411C3.59389 6.35611 4.02289 5.48511 4.00089 4.54311C3.99489 4.27211 4.04789 3.99611 4.15889 3.72111C4.38489 3.16511 4.87189 2.72611 5.43089 2.57611C5.81289 2.47311 6.18789 2.47411 6.56989 2.57611C7.12989 2.72611 7.61689 3.16511 7.84189 3.72211C7.95289 3.99611 8.00589 4.27211 7.99989 4.54411C7.97789 5.48511 8.40689 6.35611 9.14789 6.87411C9.56389 7.16511 9.84289 7.60011 9.94889 8.08211L8.20289 9.26111Z" fill="#3C3F47"/>
</g>
<defs>
<clipPath id="clip0_366_752">
<rect width="24" height="24" fill="white" transform="translate(0 0.5)"/>
</clipPath>
</defs>
</svg>
