<svg width="170" height="42" viewBox="0 0 170 42" fill="none" xmlns="http://www.w3.org/2000/svg">
<g clip-path="url(#clip0_119_346)">
<path d="M0 26.2435V1.35243L1.81083 0.5H12.6417V0.670487L11.2579 3.60286H3.41667V11.8203H12.6417V11.9908L11.2579 14.9232H3.41667V23.1407H15.4946V23.3112L14.1108 26.2435H0Z" fill="white"/>
<path d="M25.0137 26.9255V6.46704C25.0137 2.48861 27.0063 0.5 30.9928 0.5H36.2887C40.2746 0.5 42.2678 2.48861 42.2678 6.46704V25.3911L39.022 26.9255H38.8512V6.46704C38.8512 4.53445 37.997 3.56876 36.2887 3.56876H30.9928C29.2845 3.56876 28.4303 4.53445 28.4303 6.46704V25.3911L25.1845 26.9255H25.0137Z" fill="white"/>
<path d="M54.3486 26.2435V1.35243L56.1595 0.5H66.9903V0.670487L65.6065 3.60286H57.7653V11.8203H66.9903V11.9908L65.6065 14.9232H57.7653V23.1407H69.8432V23.3112L68.4595 26.2435H54.3486Z" fill="white"/>
<path d="M79.3623 26.9255V1.35243L81.1731 0.5H90.2956C94.2815 0.5 96.2748 2.49104 96.2748 6.4707V11.5877C96.2748 15.2958 94.5445 17.2747 91.0839 17.5256L96.6848 25.5104L93.6781 26.9255H93.5067L86.9302 17.5487H82.779V25.3911L79.5331 26.9255H79.3623ZM82.779 3.56876V14.4799H90.2956C92.004 14.4799 92.8581 13.5142 92.8581 11.5816V6.46704C92.8581 4.53445 92.004 3.56876 90.2956 3.56876L82.779 3.56876Z" fill="white"/>
<path d="M113.891 26.2435C109.904 26.2435 107.912 24.2549 107.912 20.2765V6.46704C107.912 2.48861 109.904 0.5 113.891 0.5H119.187C123.173 0.5 125.166 2.48861 125.166 6.46704V8.3424L121.92 9.87678H121.749V6.46704C121.749 4.53445 120.895 3.56877 119.187 3.56877H113.891C112.182 3.56877 111.328 4.53445 111.328 6.46704V20.2765C111.328 22.2091 112.182 23.1748 113.891 23.1748H119.187C120.895 23.1748 121.749 22.2091 121.749 20.2765V14.9232H115.804V14.7527L117.188 11.8203H125.166V20.2765C125.166 24.2549 123.173 26.2435 119.187 26.2435H113.891Z" fill="white"/>
<path d="M137.248 26.9255V2.03438L140.493 0.5H140.664V25.3911L137.418 26.9255H137.248Z" fill="white"/>
<path d="M152.746 26.9255V6.46704C152.746 2.48861 154.738 0.5 158.725 0.5H164.021C168.006 0.5 170 2.48861 170 6.46704V25.3911L166.754 26.9255H166.583V14.9232H156.162V25.3911L152.916 26.9255H152.746ZM156.162 11.8203H166.583V6.46704C166.583 4.53445 165.729 3.56876 164.021 3.56876H158.725C157.016 3.56876 156.162 4.53445 156.162 6.46704V11.8203Z" fill="white"/>
<path d="M5.58504 34.1184H6.54091L3.27054 41.4998L0 34.1184H0.955875L3.27054 39.5616L5.58504 34.1184Z" fill="white"/>
<path d="M9.91896 38.4972L9.83841 38.6779L8.79181 41.1485H7.83594L11.1065 33.7671L14.3768 41.1485H13.421L12.3946 38.7382L12.314 38.5375L11.1065 35.7054L9.91896 38.4972ZM9.56676 38.2361H12.6864L12.9882 39.0396H9.26492L9.56676 38.2361Z" fill="white"/>
<path d="M18.0238 34.1186V41.1485H17.1685V34.1186H18.0238ZM17.6414 34.1186H19.0804C19.5365 34.1186 19.9441 34.2041 20.303 34.3746C20.6619 34.5454 20.947 34.7881 21.1583 35.1028C21.3698 35.4175 21.4754 35.7925 21.4754 36.2275C21.4754 36.6561 21.3698 37.0294 21.1583 37.3473C20.947 37.6653 20.6619 37.9098 20.303 38.0804C19.9441 38.2512 19.5365 38.3366 19.0804 38.3366H17.6414V37.5834H19.0804C19.3822 37.5834 19.649 37.5298 19.8804 37.4226C20.1119 37.3156 20.293 37.1615 20.4237 36.9608C20.5546 36.7599 20.6201 36.5156 20.6201 36.2275C20.6201 35.9398 20.5546 35.6953 20.4237 35.4944C20.293 35.2936 20.1119 35.1396 19.8804 35.0326C19.649 34.9254 19.3822 34.8718 19.0804 34.8718H17.6414V34.1186ZM19.3822 37.6837L21.898 41.1485H20.8414L18.4263 37.6837H19.3822Z" fill="white"/>
<path d="M25.3838 39.7627C25.5616 39.9769 25.7613 40.1443 25.9826 40.2648C26.2041 40.3853 26.4555 40.4455 26.7374 40.4455C27.1131 40.4455 27.4149 40.3419 27.643 40.1342C27.871 39.9268 27.9852 39.6622 27.9852 39.3408C27.9852 39.0263 27.9114 38.7751 27.7638 38.5876C27.6162 38.4002 27.4232 38.2478 27.1852 38.1307C26.9469 38.0137 26.6937 37.9082 26.4253 37.8144C26.2509 37.7541 26.0565 37.6755 25.8417 37.5783C25.6271 37.4813 25.4224 37.3575 25.228 37.2067C25.0332 37.0561 24.874 36.8702 24.75 36.6494C24.6257 36.4284 24.5638 36.1573 24.5638 35.8359C24.5638 35.4879 24.6508 35.1766 24.8254 34.902C24.9997 34.6275 25.2413 34.4116 25.55 34.2542C25.8584 34.0971 26.2107 34.0182 26.6066 34.0182C26.989 34.0182 27.3226 34.0902 27.6078 34.2342C27.8929 34.3781 28.1362 34.5622 28.3374 34.7865C28.5387 35.0109 28.6961 35.2468 28.8104 35.4944L28.0758 35.9163C27.9886 35.7422 27.8778 35.5715 27.7438 35.4041C27.6094 35.2368 27.4469 35.0995 27.2556 34.9923C27.0645 34.8853 26.8312 34.8317 26.5563 34.8317C26.1739 34.8317 25.8954 34.9238 25.7209 35.1079C25.5465 35.292 25.4593 35.4979 25.4593 35.7254C25.4593 35.9196 25.5097 36.0988 25.6104 36.2627C25.7109 36.4268 25.8803 36.5808 26.1184 36.7247C26.3566 36.8687 26.6803 37.0109 27.0896 37.1515C27.2773 37.2186 27.4753 37.3056 27.6832 37.4126C27.8912 37.5198 28.084 37.6554 28.262 37.8193C28.4396 37.9836 28.5856 38.1809 28.6997 38.4119C28.8137 38.6429 28.8708 38.9191 28.8708 39.2405C28.8708 39.5483 28.812 39.8263 28.6947 40.0739C28.5772 40.3217 28.4162 40.5326 28.2116 40.7067C28.0068 40.8807 27.7754 41.0147 27.5172 41.1084C27.2589 41.2021 26.989 41.2489 26.7072 41.2489C26.3248 41.2489 25.9708 41.1669 25.6455 41.003C25.3201 40.8389 25.035 40.6212 24.7902 40.3501C24.5452 40.079 24.3457 39.7895 24.1914 39.4814L24.8756 39.0195C25.0367 39.3007 25.2061 39.5483 25.3838 39.7627Z" fill="white"/>
<path d="M32.9564 34.1186V41.1485H32.1011V34.1186H32.9564Z" fill="white"/>
<path d="M42.7302 34.1186V41.5L37.3968 35.9163V41.1485H36.5415V33.7671L41.8749 39.3508V34.1186H42.7302Z" fill="white"/>
<path d="M47.605 38.4972L47.5245 38.6779L46.4778 41.1485H45.522L48.7925 33.7671L52.0629 41.1485H51.107L50.0806 38.7382L50 38.5375L48.7925 35.7054L47.605 38.4972ZM47.2528 38.2361H50.3724L50.6743 39.0396H46.951L47.2528 38.2361Z" fill="white"/>
<path d="M55.7098 34.1186V41.1485H54.8545V34.1186H55.7098Z" fill="white"/>
<path d="M59.982 39.7627C60.1597 39.9769 60.3595 40.1443 60.5807 40.2648C60.8022 40.3853 61.0537 40.4455 61.3355 40.4455C61.7112 40.4455 62.0131 40.3419 62.2412 40.1342C62.4691 39.9268 62.5834 39.6622 62.5834 39.3408C62.5834 39.0263 62.5095 38.7751 62.3619 38.5876C62.2143 38.4002 62.0213 38.2478 61.7833 38.1307C61.545 38.0137 61.2918 37.9082 61.0235 37.8144C60.8491 37.7541 60.6546 37.6755 60.4398 37.5783C60.2252 37.4813 60.0206 37.3575 59.8261 37.2067C59.6314 37.0561 59.4722 36.8702 59.3481 36.6494C59.2239 36.4284 59.1619 36.1573 59.1619 35.8359C59.1619 35.4879 59.249 35.1766 59.4236 34.902C59.5978 34.6275 59.8395 34.4116 60.1482 34.2542C60.4565 34.0971 60.8089 34.0182 61.2048 34.0182C61.5872 34.0182 61.9208 34.0902 62.2059 34.2342C62.4911 34.3781 62.7343 34.5622 62.9356 34.7865C63.1369 35.0109 63.2943 35.2468 63.4085 35.4944L62.6739 35.9163C62.5867 35.7422 62.476 35.5715 62.3419 35.4041C62.2075 35.2368 62.045 35.0995 61.8537 34.9923C61.6626 34.8853 61.4294 34.8317 61.1544 34.8317C60.772 34.8317 60.4935 34.9238 60.3191 35.1079C60.1447 35.292 60.0574 35.4979 60.0574 35.7254C60.0574 35.9196 60.1078 36.0988 60.2085 36.2627C60.3091 36.4268 60.4784 36.5808 60.7166 36.7247C60.9547 36.8687 61.2785 37.0109 61.6877 37.1515C61.8755 37.2186 62.0734 37.3056 62.2814 37.4126C62.4893 37.5198 62.6822 37.6554 62.8601 37.8193C63.0377 37.9836 63.1837 38.1809 63.2978 38.4119C63.4119 38.6429 63.4689 38.9191 63.4689 39.2405C63.4689 39.5483 63.4101 39.8263 63.2929 40.0739C63.1753 40.3217 63.0144 40.5326 62.8098 40.7067C62.605 40.8807 62.3735 41.0147 62.1154 41.1084C61.8571 41.2021 61.5872 41.2489 61.3053 41.2489C60.9229 41.2489 60.569 41.1669 60.2436 41.003C59.9183 40.8389 59.6331 40.6212 59.3883 40.3501C59.1433 40.079 58.9438 39.7895 58.7896 39.4814L59.4738 39.0195C59.6349 39.3007 59.8042 39.5483 59.982 39.7627Z" fill="white"/>
<path d="M66.3691 38.3867H68.3818V39.1399H66.3691V38.3867Z" fill="white"/>
<path d="M72.2125 39.7627C72.3902 39.9769 72.5899 40.1443 72.8112 40.2648C73.0325 40.3853 73.2841 40.4455 73.566 40.4455C73.9415 40.4455 74.2434 40.3419 74.4715 40.1342C74.6996 39.9268 74.8137 39.6622 74.8137 39.3408C74.8137 39.0263 74.7396 38.7751 74.5922 38.5876C74.4445 38.4002 74.2518 38.2478 74.0138 38.1307C73.7755 38.0137 73.5221 37.9082 73.254 37.8144C73.0795 37.7541 72.8851 37.6755 72.6703 37.5783C72.4557 37.4813 72.2511 37.3575 72.0566 37.2067C71.8618 37.0561 71.7027 36.8702 71.5786 36.6494C71.4543 36.4284 71.3924 36.1573 71.3924 35.8359C71.3924 35.4879 71.4794 35.1766 71.6541 34.902C71.8283 34.6275 72.07 34.4116 72.3786 34.2542C72.687 34.0971 73.0392 34.0182 73.4351 34.0182C73.8176 34.0182 74.151 34.0902 74.4364 34.2342C74.7214 34.3781 74.9646 34.5622 75.1657 34.7865C75.3672 35.0109 75.5248 35.2468 75.6388 35.4944L74.9042 35.9163C74.8168 35.7422 74.7063 35.5715 74.5722 35.4041C74.4378 35.2368 74.2753 35.0995 74.084 34.9923C73.8931 34.8853 73.6597 34.8317 73.3849 34.8317C73.0023 34.8317 72.724 34.9238 72.5496 35.1079C72.3751 35.292 72.2879 35.4979 72.2879 35.7254C72.2879 35.9196 72.3383 36.0988 72.439 36.2627C72.5396 36.4268 72.7089 36.5808 72.947 36.7247C73.1852 36.8687 73.5088 37.0109 73.918 37.1515C74.1058 37.2186 74.3037 37.3056 74.5118 37.4126C74.7196 37.5198 74.9127 37.6554 75.0903 37.8193C75.2682 37.9836 75.4139 38.1809 75.5283 38.4119C75.642 38.6429 75.6992 38.9191 75.6992 39.2405C75.6992 39.5483 75.6402 39.8263 75.523 40.0739C75.4058 40.3217 75.2447 40.5326 75.0401 40.7067C74.8354 40.8807 74.6038 41.0147 74.3458 41.1084C74.0875 41.2021 73.8176 41.2489 73.5358 41.2489C73.1532 41.2489 72.7995 41.1669 72.4741 41.003C72.1488 40.8389 71.8636 40.6212 71.6188 40.3501C71.3738 40.079 71.1743 39.7895 71.02 39.4814L71.7042 39.0195C71.8653 39.3007 72.0347 39.5483 72.2125 39.7627Z" fill="white"/>
<path d="M79.7028 34.1186V38.8387C79.7028 39.3207 79.8334 39.7091 80.0952 40.0037C80.3567 40.2983 80.7393 40.4455 81.2422 40.4455C81.7455 40.4455 82.1277 40.2983 82.3895 40.0037C82.651 39.7091 82.7819 39.3207 82.7819 38.8387V34.1186H83.6372V38.8387C83.6372 39.1869 83.5821 39.5082 83.4712 39.8028C83.3607 40.0976 83.1996 40.3518 82.9883 40.566C82.777 40.7804 82.5236 40.9476 82.2284 41.0681C81.9333 41.1886 81.6048 41.2489 81.2422 41.2489C80.88 41.2489 80.5511 41.1886 80.256 41.0681C79.9608 40.9476 79.7078 40.7804 79.4965 40.566C79.2852 40.3518 79.1241 40.0976 79.0132 39.8028C78.9026 39.5082 78.8472 39.1869 78.8472 38.8387V34.1186H79.7028Z" fill="white"/>
<path d="M87.0216 36.2025C87.1992 35.7641 87.4491 35.3825 87.7713 35.0576C88.0931 34.733 88.4722 34.4787 88.9084 34.2944C89.3444 34.1104 89.8175 34.0182 90.3271 34.0182C90.8437 34.0182 91.3186 34.1104 91.7513 34.2944C92.1837 34.4787 92.5614 34.733 92.8832 35.0576C93.2054 35.3825 93.4553 35.7641 93.6329 36.2025C93.8105 36.641 93.8996 37.1181 93.8996 37.6336C93.8996 38.1424 93.8105 38.6177 93.6329 39.0596C93.4553 39.5016 93.2054 39.8849 92.8832 40.2095C92.5614 40.5343 92.1837 40.7886 91.7513 40.9727C91.3186 41.1567 90.8437 41.2489 90.3271 41.2489C89.8175 41.2489 89.3444 41.1567 88.9084 40.9727C88.4722 40.7886 88.0931 40.5343 87.7713 40.2095C87.4491 39.8849 87.1992 39.5016 87.0216 39.0596C86.8437 38.6177 86.7549 38.1424 86.7549 37.6336C86.7549 37.1181 86.8437 36.641 87.0216 36.2025ZM88.0079 39.0496C88.2391 39.4648 88.5561 39.7928 88.9586 40.0338C89.3612 40.2748 89.8175 40.3953 90.3271 40.3953C90.8437 40.3953 91.3017 40.2748 91.7008 40.0338C92.0998 39.7928 92.4154 39.4648 92.6467 39.0496C92.8783 38.6345 92.9941 38.1625 92.9941 37.6336C92.9941 37.1047 92.8783 36.6328 92.6467 36.2175C92.4154 35.8025 92.0998 35.4745 91.7008 35.2333C91.3017 34.9923 90.8437 34.8718 90.3271 34.8718C89.8175 34.8718 89.3612 34.9923 88.9586 35.2333C88.5561 35.4745 88.2391 35.8025 88.0079 36.2175C87.7762 36.6328 87.6604 37.1047 87.6604 37.6336C87.6604 38.1625 87.7762 38.6345 88.0079 39.0496Z" fill="white"/>
<path d="M97.4911 41.1485H96.6357L97.4911 33.7671L100.309 38.8589L103.126 33.7671L103.982 41.1485H103.126L102.603 36.3983L100.309 40.4958L98.0144 36.3983L97.4911 41.1485Z" fill="white"/>
<path d="M108.067 34.1186V41.1485H107.212V34.1186H108.067ZM107.685 34.1186H111.237V34.9221H107.685V34.1186ZM107.685 36.9307H111.036V37.734H107.685V36.9307ZM107.685 40.345H111.237V41.1485H107.685V40.345Z" fill="white"/>
<path d="M120.742 34.1186V41.5L115.409 35.9163V41.1485H114.554V33.7671L119.887 39.3508V34.1186H120.742Z" fill="white"/>
</g>
<defs>
<clipPath id="clip0_119_346">
<rect width="170" height="41" fill="white" transform="translate(0 0.5)"/>
</clipPath>
</defs>
</svg>
