<svg width="24" height="25" viewBox="0 0 24 25" fill="none" xmlns="http://www.w3.org/2000/svg">
<g clip-path="url(#clip0_368_880)">
<path d="M1.87855 18.3778C1.00972 19.5774 0.386142 20.9367 0.0435479 22.3778C-0.021894 22.6647 -0.0134617 22.9635 0.0680553 23.2463C0.149572 23.529 0.301508 23.7864 0.509637 23.9945C0.717766 24.2025 0.97528 24.3543 1.25807 24.4357C1.54086 24.5171 1.83968 24.5254 2.12655 24.4598C3.5654 24.1167 4.92256 23.4935 6.12055 22.6258C6.68387 22.0633 7.00065 21.3 7.00122 20.5039C7.00178 19.7078 6.68607 18.9441 6.12355 18.3808C5.56102 17.8175 4.79776 17.5007 4.00167 17.5001C3.20558 17.4996 2.44187 17.8153 1.87855 18.3778ZM4.70655 21.2068C3.90055 21.723 3.02508 22.1217 2.10655 22.3908C2.37603 21.4724 2.77468 20.597 3.29055 19.7908C3.47915 19.6086 3.73175 19.5078 3.99395 19.5101C4.25615 19.5124 4.50696 19.6176 4.69237 19.803C4.87777 19.9884 4.98294 20.2392 4.98522 20.5014C4.9875 20.7636 4.88671 21.0162 4.70455 21.2048L4.70655 21.2068ZM17.9995 8.99979C17.9995 9.66283 17.7362 10.2987 17.2673 10.7676C16.7985 11.2364 16.1626 11.4998 15.4995 11.4998C14.8365 11.4998 14.2006 11.2364 13.7318 10.7676C13.2629 10.2987 12.9995 9.66283 12.9995 8.99979C12.9995 8.33675 13.2629 7.70086 13.7318 7.23202C14.2006 6.76318 14.8365 6.49979 15.4995 6.49979C16.1626 6.49979 16.7985 6.76318 17.2673 7.23202C17.7362 7.70086 17.9995 8.33675 17.9995 8.99979ZM20.9715 0.499785C18.5918 0.485639 16.2408 1.02011 14.1011 2.06171C11.9613 3.10332 10.0904 4.62403 8.63355 6.50579C7.04468 6.56072 5.48631 6.95739 4.06455 7.66879C2.41577 8.42802 1.06979 9.71906 0.242548 11.3348C0.0484173 11.7856 -0.0303822 12.2776 0.0132648 12.7664C0.0569119 13.2553 0.221631 13.7255 0.492548 14.1348C0.766051 14.5541 1.13983 14.8985 1.58004 15.1368C2.02024 15.3752 2.51296 15.4999 3.01355 15.4998H5.49955C6.42643 15.5043 7.31407 15.8744 7.96948 16.5299C8.62489 17.1853 8.99508 18.0729 8.99955 18.9998V21.4858C8.9992 21.9862 9.12365 22.4788 9.36164 22.919C9.59963 23.3592 9.94365 23.7331 10.3625 24.0068C10.7718 24.2777 11.2421 24.4424 11.7309 24.4861C12.2198 24.5297 12.7118 24.4509 13.1625 24.2568C14.7783 23.4295 16.0693 22.0836 16.8285 20.4348C17.5399 19.013 17.9366 17.4547 17.9915 15.8658C19.8763 14.4052 21.3989 12.5297 22.4409 10.385C23.4829 8.24028 24.0163 5.88417 23.9995 3.49979C23.9984 3.10379 23.919 2.71193 23.7661 2.34665C23.6132 1.98138 23.3896 1.64989 23.1083 1.37118C22.827 1.09247 22.4935 0.872034 22.1268 0.722501C21.7601 0.572968 21.3675 0.497283 20.9715 0.499785ZM4.34555 13.4998H3.01355C2.84445 13.5011 2.67778 13.4595 2.52912 13.3789C2.38047 13.2982 2.25469 13.1812 2.16355 13.0388C2.07401 12.9065 2.01928 12.7537 2.00442 12.5947C1.98957 12.4356 2.01506 12.2754 2.07855 12.1288C2.7229 10.9479 3.73519 10.0097 4.96155 9.45679C5.59518 9.13908 6.26416 8.8974 6.95455 8.73679C5.96058 10.2531 5.08819 11.8458 4.34555 13.4998ZM15.0455 19.5378C14.4926 20.7638 13.5549 21.776 12.3745 22.4208C12.2278 22.4844 12.0674 22.5099 11.9082 22.495C11.7489 22.4802 11.596 22.4254 11.4635 22.3358C11.3211 22.2446 11.2041 22.1189 11.1235 21.9702C11.0429 21.8216 11.0013 21.6549 11.0025 21.4858V20.1538C12.6566 19.4111 14.2492 18.5388 15.7655 17.5448C15.604 18.2353 15.3613 18.9043 15.0425 19.5378H15.0455ZM15.1805 15.5178C13.8273 16.4576 12.3988 17.2841 10.9095 17.9888C10.7062 16.8969 10.177 15.8921 9.39161 15.1067C8.60623 14.3213 7.60147 13.7921 6.50955 13.5888C7.21473 12.1009 8.04154 10.6737 8.98155 9.32179C12.3495 4.62379 15.8395 2.64679 20.9995 2.49979C21.26 2.49968 21.5102 2.60119 21.6969 2.78271C21.8837 2.96423 21.9923 3.21145 21.9995 3.47179C21.8525 8.65979 19.8755 12.1498 15.1775 15.5178H15.1805Z" fill="#3C3F47"/>
</g>
<defs>
<clipPath id="clip0_368_880">
<rect width="24" height="24" fill="white" transform="translate(0 0.5)"/>
</clipPath>
</defs>
</svg>
