<svg width="24" height="25" viewBox="0 0 24 25" fill="none" xmlns="http://www.w3.org/2000/svg">
<g clip-path="url(#clip0_368_888)">
<path d="M3.9874 3.566C3.7064 3.091 3.8624 2.478 4.3384 2.196C4.8124 1.915 5.4264 2.071 5.7084 2.547L6.3014 3.547C6.5824 4.022 6.4264 4.635 5.9504 4.917C5.4834 5.196 4.8634 5.046 4.5804 4.566L3.9874 3.566ZM21.1904 14.774C19.7004 16.726 16.5254 20 12.0004 20C7.3554 20 4.2394 16.767 2.7954 14.839C1.7734 13.475 1.7754 11.583 2.8004 10.238C4.2914 8.282 7.4694 5 12.0004 5C16.6044 5 19.7364 8.239 21.1944 10.17C22.2224 11.532 22.2204 13.425 21.1904 14.774ZM19.5984 11.375C18.3654 9.741 15.7384 7 12.0004 7C8.3314 7 5.6584 9.789 4.3914 11.451C3.8984 12.098 3.9004 12.978 4.3964 13.64C5.6164 15.268 8.2264 18 12.0004 18C15.6644 18 18.3344 15.219 19.6004 13.561C20.0964 12.912 20.0954 12.034 19.5984 11.375ZM16.0004 12.5C16.0004 14.706 14.2064 16.5 12.0004 16.5C9.7944 16.5 8.0004 14.706 8.0004 12.5C8.0004 10.294 9.7944 8.5 12.0004 8.5C14.2064 8.5 16.0004 10.294 16.0004 12.5ZM14.0004 12.5C14.0004 11.397 13.1034 10.5 12.0004 10.5C10.8974 10.5 10.0004 11.397 10.0004 12.5C10.0004 13.603 10.8974 14.5 12.0004 14.5C13.1034 14.5 14.0004 13.603 14.0004 12.5ZM12.0004 3.5C12.5524 3.5 13.0004 3.052 13.0004 2.5V1.5C13.0004 0.948 12.5524 0.5 12.0004 0.5C11.4484 0.5 11.0004 0.948 11.0004 1.5V2.5C11.0004 3.052 11.4484 3.5 12.0004 3.5ZM18.0504 4.917C18.5174 5.196 19.1374 5.046 19.4204 4.566L20.0134 3.566C20.2944 3.091 20.1384 2.478 19.6624 2.196C19.1884 1.915 18.5744 2.071 18.2924 2.547L17.6994 3.547C17.4184 4.022 17.5744 4.635 18.0504 4.917ZM19.4204 20.434C19.1384 19.958 18.5254 19.802 18.0504 20.083C17.5754 20.364 17.4184 20.978 17.6994 21.453L18.2924 22.453C18.5754 22.932 19.1954 23.082 19.6624 22.804C20.1374 22.522 20.2944 21.909 20.0134 21.434L19.4204 20.434ZM12.0004 21.5C11.4484 21.5 11.0004 21.948 11.0004 22.5V23.5C11.0004 24.052 11.4484 24.5 12.0004 24.5C12.5524 24.5 13.0004 24.052 13.0004 23.5V22.5C13.0004 21.948 12.5524 21.5 12.0004 21.5ZM5.9504 20.083C5.4754 19.801 4.8624 19.958 4.5804 20.434L3.9874 21.434C3.7064 21.909 3.8624 22.522 4.3384 22.804C4.8054 23.083 5.4254 22.933 5.7084 22.453L6.3014 21.453C6.5824 20.978 6.4264 20.365 5.9504 20.083Z" fill="#3C3F47"/>
</g>
<defs>
<clipPath id="clip0_368_888">
<rect width="24" height="24" fill="white" transform="translate(0 0.5)"/>
</clipPath>
</defs>
</svg>
