<svg width="40" height="41" viewBox="0 0 40 41" fill="none" xmlns="http://www.w3.org/2000/svg">
<g clip-path="url(#clip0_343_206)">
<path fill-rule="evenodd" clip-rule="evenodd" d="M34.1737 6.31333C30.4124 2.56667 25.4118 0.501667 20.0846 0.5C9.10697 0.5 0.172493 9.39 0.167469 20.32C0.165794 23.8133 1.08352 27.2233 2.82688 30.23L0 40.5L10.5573 37.7433C13.4662 39.3233 16.7419 40.155 20.0745 40.1567H20.0829C31.0588 40.1567 39.995 31.265 40 20.335C40.0033 15.04 37.9334 10.0583 34.1737 6.31333ZM20.0846 36.8083H20.0779C17.107 36.8083 14.1947 36.0133 11.6525 34.5117L11.0479 34.155L4.78292 35.79L6.45593 29.71L6.06238 29.0867C4.40444 26.4633 3.53025 23.4317 3.53192 20.32C3.53527 11.2367 10.9625 3.84666 20.0929 3.84666C24.5141 3.84666 28.6707 5.56333 31.7957 8.67666C34.9207 11.7917 36.6406 15.93 36.6389 20.3317C36.6339 29.4183 29.2083 36.8083 20.0846 36.8083ZM29.1647 24.47C28.6674 24.2217 26.2206 23.0233 25.7634 22.8583C25.3079 22.6933 24.9763 22.61 24.6431 23.105C24.3098 23.6 23.3586 24.7167 23.0672 25.0483C22.7775 25.3783 22.4861 25.42 21.9887 25.1717C21.4913 24.9233 19.887 24.4017 17.9862 22.7133C16.5074 21.4 15.5076 19.7783 15.2179 19.2817C14.9282 18.785 15.1878 18.5183 15.4356 18.2717C15.66 18.05 15.933 17.6933 16.1825 17.4033C16.4337 17.1167 16.5158 16.91 16.6833 16.5783C16.8491 16.2483 16.767 15.9583 16.6414 15.71C16.5158 15.4633 15.521 13.025 15.1074 12.0333C14.7038 11.0667 14.2935 11.1983 13.987 11.1833C13.6973 11.1683 13.3657 11.1667 13.0324 11.1667C12.7009 11.1667 12.1616 11.29 11.7061 11.7867C11.2506 12.2833 9.96441 13.4817 9.96441 15.9183C9.96441 18.3567 11.748 20.7117 11.9958 21.0417C12.2437 21.3717 15.5043 26.375 20.4965 28.52C21.6839 29.03 22.6117 29.335 23.3335 29.5633C24.5259 29.94 25.611 29.8867 26.4685 29.76C27.4247 29.6183 29.4126 28.5617 29.8279 27.405C30.2432 26.2483 30.2432 25.255 30.1176 25.05C29.9937 24.8417 29.6621 24.7183 29.1647 24.47Z" fill="#35B666"/>
</g>
<defs>
<clipPath id="clip0_343_206">
<rect width="40" height="40" fill="white" transform="translate(0 0.5)"/>
</clipPath>
</defs>
</svg>
