<svg width="40" height="40" viewBox="0 0 40 40" fill="none" xmlns="http://www.w3.org/2000/svg">
<g clip-path="url(#clip0_643_39)">
<path fill-rule="evenodd" clip-rule="evenodd" d="M34.1737 5.81333C30.4124 2.06667 25.4118 0.0016667 20.0846 0C9.10697 0 0.172493 8.89 0.167469 19.82C0.165794 23.3133 1.08352 26.7233 2.82688 29.73L0 40L10.5573 37.2433C13.4662 38.8233 16.7419 39.655 20.0745 39.6567H20.0829C31.0588 39.6567 39.995 30.765 40 19.835C40.0033 14.54 37.9334 9.55833 34.1737 5.81333ZM20.0846 36.3083H20.0779C17.107 36.3083 14.1947 35.5133 11.6525 34.0117L11.0479 33.655L4.78292 35.29L6.45593 29.21L6.06238 28.5867C4.40444 25.9633 3.53025 22.9317 3.53192 19.82C3.53527 10.7367 10.9625 3.34666 20.0929 3.34666C24.5141 3.34666 28.6707 5.06333 31.7957 8.17666C34.9207 11.2917 36.6406 15.43 36.6389 19.8317C36.6339 28.9183 29.2083 36.3083 20.0846 36.3083ZM29.1647 23.97C28.6674 23.7217 26.2206 22.5233 25.7634 22.3583C25.3079 22.1933 24.9763 22.11 24.6431 22.605C24.3098 23.1 23.3586 24.2167 23.0672 24.5483C22.7775 24.8783 22.4861 24.92 21.9887 24.6717C21.4913 24.4233 19.887 23.9017 17.9862 22.2133C16.5074 20.9 15.5076 19.2783 15.2179 18.7817C14.9282 18.285 15.1878 18.0183 15.4356 17.7717C15.66 17.55 15.933 17.1933 16.1825 16.9033C16.4337 16.6167 16.5158 16.41 16.6833 16.0783C16.8491 15.7483 16.767 15.4583 16.6414 15.21C16.5158 14.9633 15.521 12.525 15.1074 11.5333C14.7038 10.5667 14.2935 10.6983 13.987 10.6833C13.6973 10.6683 13.3657 10.6667 13.0324 10.6667C12.7009 10.6667 12.1616 10.79 11.7061 11.2867C11.2506 11.7833 9.96441 12.9817 9.96441 15.4183C9.96441 17.8567 11.748 20.2117 11.9958 20.5417C12.2437 20.8717 15.5043 25.875 20.4965 28.02C21.6839 28.53 22.6117 28.835 23.3335 29.0633C24.5259 29.44 25.611 29.3867 26.4685 29.26C27.4247 29.1183 29.4126 28.0617 29.8279 26.905C30.2432 25.7483 30.2432 24.755 30.1176 24.55C29.9937 24.3417 29.6621 24.2183 29.1647 23.97Z" fill="white"/>
</g>
<defs>
<clipPath id="clip0_643_39">
<rect width="40" height="40" fill="white"/>
</clipPath>
</defs>
</svg>
