<svg width="165" height="26" viewBox="0 0 165 26" fill="none" xmlns="http://www.w3.org/2000/svg">
<g clip-path="url(#clip0_126_571)">
<path d="M12.7686 17.392H8.28047V11.6723H11.1969C11.7491 11.6723 12.2192 11.6587 12.7713 11.6287C13.1376 11.6148 13.4958 11.5173 13.8185 11.3439C14.1411 11.1705 14.4197 10.9256 14.6327 10.6281C14.8688 10.3177 15.0196 9.95123 15.0701 9.56489C15.1193 9.22683 15.1247 8.93784 15.0919 8.59433C15.0345 7.98286 14.7496 7.41501 14.2932 7.00272C13.8369 6.59043 13.2422 6.3636 12.6265 6.36696H8.28047V24.9111H0.854004V0.5H12.99C13.4738 0.5 13.8811 0.508179 14.3649 0.535442C17.5875 0.707197 20.2415 2.49291 21.6055 5.40731C22.3023 6.84854 22.569 8.45927 22.3735 10.0474C22.2087 11.7295 21.5089 13.315 20.3764 14.5721C19.2439 15.8293 17.7379 16.6922 16.0787 17.0349C14.9934 17.2788 13.8838 17.3986 12.7713 17.392" fill="#3C3F47" fill-opacity="0.6"/>
<path d="M40.3454 23.5453C40.247 22.1085 40.1923 20.8926 40.1622 19.4504C40.124 17.5556 40.1021 15.9608 40.0884 14.066C40.0884 13.0959 39.9616 12.1299 39.7112 11.1925C39.561 10.5716 39.2814 9.98925 38.8905 9.48334C38.4996 8.97744 38.0062 8.55934 37.4426 8.25628C36.7728 7.87823 36.0479 7.60687 35.2942 7.45203C32.8987 6.91514 30.4193 6.86599 28.0044 7.30754C27.2937 7.43022 26.7006 7.60197 26.0309 7.88005C25.2875 8.17295 24.6209 8.63117 24.0819 9.21983C23.5429 9.80849 23.1456 10.5121 22.9204 11.277C22.7336 11.8574 22.6767 12.4716 22.7536 13.0763C22.7646 13.1909 22.7946 13.289 22.8466 13.3953L28.7314 13.5398C28.7133 13.1856 28.7673 12.8313 28.89 12.4984C28.978 12.2413 29.1237 12.0077 29.316 11.8154C29.5084 11.6231 29.7422 11.4772 29.9997 11.3888C30.7532 11.1005 31.5845 11.086 32.3476 11.3479C32.6005 11.426 32.8301 11.5651 33.0161 11.753C33.202 11.9408 33.3386 12.1716 33.4136 12.4248C33.512 12.7519 33.4628 13.0791 33.2633 13.3599C33.0992 13.5999 32.8642 13.7829 32.5909 13.8833C32.416 13.9515 32.2629 13.9978 32.0852 14.0469C31.3111 14.2575 30.5265 14.4276 29.7346 14.5567C29.0731 14.6658 28.5155 14.7666 27.8595 14.9002C27.0151 15.0654 26.1817 15.2821 25.364 15.5491C24.6092 15.7842 23.9177 16.1869 23.3413 16.7268C22.5689 17.4111 22.0716 18.3518 21.9418 19.3741C21.8407 20.0856 21.8653 20.7045 22.0238 21.4051C22.2073 22.2779 22.6283 23.0834 23.2407 23.7332C23.8531 24.3829 24.6331 24.8518 25.4952 25.0883C27.3979 25.6693 29.4446 25.5661 31.2789 24.7966C32.175 24.4489 32.9646 23.8738 33.5694 23.1281L33.154 20.1292C32.8769 20.5705 32.4704 20.9161 31.9896 21.1189C31.5249 21.3233 31.1012 21.4324 30.5956 21.4842C30.1719 21.5251 29.8056 21.4951 29.3956 21.3806C29.0773 21.2984 28.7897 21.1261 28.5674 20.8844C28.3724 20.6813 28.2396 20.4269 28.1848 20.151C28.1381 19.9408 28.1507 19.7218 28.2212 19.5183C28.2916 19.3147 28.4171 19.1346 28.5838 18.9978C28.8006 18.8094 29.0509 18.6632 29.3218 18.5671C29.969 18.3283 30.6256 18.1155 31.2898 17.9291C32.1344 17.6919 32.8314 17.4357 33.6323 17.0676C33.7088 17.7056 33.7061 18.2508 33.6159 18.8861C33.553 19.3522 33.4082 19.7367 33.154 20.1292L33.5694 23.1281C33.6979 23.5534 33.8154 23.9079 33.963 24.3277C34.045 24.5594 34.1544 24.7394 34.3184 24.922H40.7964C40.5281 24.5112 40.3726 24.0375 40.3454 23.548" fill="#3C3F47" fill-opacity="0.6"/>
<path d="M48.094 9.31673C48.9054 8.59841 49.8204 8.00565 50.8082 7.55827C52.4205 6.78625 54.2655 6.64993 55.9742 7.17659C56.8936 7.4292 57.7337 7.91036 58.4159 8.57503C59.0981 9.23971 59.6 10.0662 59.8747 10.977C60.1575 11.8421 60.2978 12.7471 60.2902 13.657V24.9111H53.3475V14.7911C53.3475 14.453 53.3038 14.1641 53.2054 13.8424C53.1242 13.5629 52.9804 13.3056 52.7848 13.0897C52.5892 12.8739 52.347 12.7052 52.0765 12.5964C51.4877 12.3436 50.8264 12.3149 50.2178 12.5159C49.6092 12.7169 49.0958 13.1336 48.7746 13.687C48.4993 14.1414 48.3572 14.6637 48.3646 15.1946V24.9111H41.6406V7.47376H47.9464L48.094 9.31673Z" fill="#3C3F47" fill-opacity="0.6"/>
<path d="M79.5959 23.5453C79.4975 22.1085 79.4428 20.8926 79.4127 19.4504C79.3745 17.5556 79.3526 15.9608 79.3389 14.066C79.3389 13.0959 79.2121 12.1299 78.9617 11.1925C78.8115 10.5716 78.5319 9.98925 78.141 9.48334C77.7501 8.97744 77.2567 8.55934 76.6931 8.25628C76.0233 7.87823 75.2984 7.60687 74.5447 7.45203C72.1492 6.91514 69.6698 6.86599 67.2549 7.30754C66.5442 7.43022 65.9511 7.60197 65.2814 7.88005C64.538 8.17295 63.8714 8.63117 63.3324 9.21983C62.7933 9.80849 62.3961 10.5121 62.1709 11.277C61.9841 11.8574 61.9272 12.4716 62.0041 13.0763C62.0151 13.1909 62.0451 13.289 62.0971 13.3953L67.9819 13.5398C67.9638 13.1856 68.0178 12.8313 68.1405 12.4984C68.2285 12.2413 68.3742 12.0077 68.5665 11.8154C68.7589 11.6231 68.9927 11.4772 69.2502 11.3888C70.0037 11.1005 70.835 11.086 71.5981 11.3479C71.851 11.426 72.0806 11.5651 72.2665 11.753C72.4525 11.9408 72.5891 12.1716 72.6641 12.4248C72.7625 12.7519 72.7133 13.0791 72.5138 13.3599C72.3497 13.5999 72.1147 13.7829 71.8414 13.8833C71.6665 13.9515 71.5134 13.9978 71.3357 14.0469C70.5616 14.2575 69.777 14.4276 68.9851 14.5567C68.3236 14.6658 67.766 14.7666 67.11 14.9002C66.2656 15.0654 65.4322 15.2821 64.6145 15.5491C63.8597 15.7842 63.1682 16.1869 62.5918 16.7268C61.8194 17.4111 61.3221 18.3518 61.1923 19.3741C61.0912 20.0856 61.1158 20.7045 61.2743 21.4051C61.4578 22.2779 61.8788 23.0834 62.4912 23.7332C63.1036 24.3829 63.8836 24.8518 64.7457 25.0883C66.6484 25.6693 68.6951 25.5661 70.5294 24.7966C71.4255 24.4489 72.2151 23.8738 72.8199 23.1281L72.4045 20.1292C72.1274 20.5705 71.7209 20.9161 71.2401 21.1189C70.7754 21.3233 70.3517 21.4324 69.8461 21.4842C69.4224 21.5251 69.0561 21.4951 68.6461 21.3806C68.3278 21.2984 68.0402 21.1261 67.8179 20.8844C67.6229 20.6813 67.4901 20.4269 67.4353 20.151C67.3886 19.9408 67.4012 19.7218 67.4717 19.5183C67.5421 19.3147 67.6676 19.1346 67.8343 18.9978C68.0511 18.8094 68.3014 18.6632 68.5723 18.5671C69.2195 18.3283 69.876 18.1155 70.5403 17.9291C71.3849 17.6919 72.0819 17.4357 72.8828 17.0676C72.9593 17.7056 72.9566 18.2508 72.8664 18.8861C72.8035 19.3522 72.6587 19.7367 72.4045 20.1292L72.8199 23.1281C72.9484 23.5534 73.0659 23.9079 73.2135 24.3277C73.2955 24.5594 73.4049 24.7394 73.5689 24.922H80.0469C79.7786 24.5112 79.6231 24.0375 79.5959 23.548" fill="#3C3F47" fill-opacity="0.6"/>
<path d="M89.2992 18.5015C89.7994 18.5861 90.2176 18.6924 90.6987 18.8505C90.8915 18.9107 91.0645 19.0218 91.1992 19.172C91.3339 19.3222 91.4254 19.506 91.464 19.7038C91.5136 19.9172 91.5072 20.1396 91.4455 20.3498C91.3837 20.5599 91.2686 20.7506 91.1114 20.9034C90.8012 21.2243 90.3923 21.4326 89.9497 21.495C89.332 21.5932 88.7853 21.5441 88.2004 21.3314C87.9279 21.2372 87.675 21.094 87.4542 20.9089C87.164 20.671 86.9517 20.352 86.8447 19.9928C86.7495 19.6924 86.7051 19.3782 86.7135 19.0632H80.312V19.4339C80.312 20.0337 80.4049 20.5435 80.6154 21.1079C80.9379 21.953 81.378 22.6073 82.0422 23.2235C82.861 24.0018 83.8615 24.564 84.9532 24.8592C87.2011 25.5252 89.571 25.6743 91.8849 25.2954C92.9712 25.1393 94.0224 24.7981 94.9927 24.2867C95.4233 24.0657 95.8269 23.7959 96.1954 23.4825C97.0348 22.8001 97.6456 21.8787 97.9464 20.8412C98.2473 19.8037 98.2238 18.6994 97.8791 17.6755C97.6396 16.9009 97.1824 16.2112 96.5617 15.688C95.7275 14.952 94.7369 14.4142 93.6643 14.115L92.9646 13.9159C91.665 13.5507 90.3429 13.2702 89.0067 13.0763C88.6295 13.0217 88.3125 12.9617 87.9407 12.8745C87.7779 12.8362 87.6195 12.7813 87.4679 12.7109C87.3742 12.669 87.2897 12.6092 87.2192 12.5347C87.1487 12.4603 87.0936 12.3727 87.0571 12.277C87.0205 12.1813 87.0032 12.0793 87.0062 11.977C87.0091 11.8746 87.0323 11.7738 87.0743 11.6804L87.1043 11.6204C87.2024 11.4402 87.336 11.2815 87.4972 11.1541C87.6583 11.0267 87.8436 10.9331 88.0419 10.8789C88.7744 10.6689 89.4468 10.688 90.1657 10.9279C90.4968 11.037 90.7827 11.2517 90.9794 11.539C91.176 11.8262 91.2723 12.1701 91.2535 12.5174H97.4254C97.4254 11.7991 97.2977 11.0865 97.0482 10.4127C96.8076 9.72032 96.3685 9.11364 95.7854 8.66785C95.2894 8.26998 94.733 7.9534 94.1372 7.73001C93.5602 7.50336 92.9611 7.33707 92.3496 7.23383C90.9008 6.97531 89.4259 6.89292 87.9571 6.98846C87.0715 7.03754 86.3253 7.14659 85.4589 7.34833C84.2945 7.62096 83.3542 8.0708 82.4139 8.80689C81.641 9.39528 81.063 10.2016 80.7548 11.1215C80.3814 12.2325 80.4221 13.4405 80.8696 14.5239C81.1028 15.1358 81.4633 15.6914 81.9273 16.1543C82.3914 16.6171 82.9485 16.9767 83.5619 17.2093C84.2097 17.4656 84.7755 17.6346 85.4589 17.7736C86.8064 18.0517 87.9462 18.2671 89.3019 18.4988M110.269 7.14114C109.578 7.03209 108.987 6.98574 108.288 6.98574C107.588 6.98574 107 7.03209 106.306 7.14114C104.38 7.41526 102.593 8.29929 101.208 9.66295C99.6792 11.0835 98.7424 13.0263 98.5843 15.1046C98.4583 16.3654 98.5743 17.6385 98.926 18.856C99.4727 20.8243 100.506 22.3456 102.132 23.5861C103.143 24.3783 104.325 24.9253 105.584 25.1837C106.472 25.3823 107.38 25.4792 108.29 25.4727C109.247 25.4727 110.056 25.3909 110.994 25.1837C112.253 24.9252 113.435 24.3782 114.446 23.5861L110.69 19.5021C110.548 19.8167 110.346 20.1004 110.094 20.3369C109.842 20.5733 109.546 20.758 109.223 20.8803C108.899 21.0026 108.555 21.0601 108.209 21.0496C107.864 21.039 107.523 20.9606 107.208 20.8189C106.616 20.5633 106.144 20.0925 105.888 19.5021C105.642 18.9682 105.476 18.4016 105.393 17.82C105.207 16.5932 105.229 15.5299 105.467 14.314C105.59 13.6842 105.803 13.1689 106.156 12.6291C106.388 12.2771 106.705 11.9881 107.077 11.7881C107.449 11.5881 107.865 11.4835 108.288 11.4835C108.71 11.4835 109.126 11.5881 109.499 11.7881C109.871 11.9881 110.187 12.2771 110.42 12.6291C110.762 13.1378 110.997 13.7113 111.108 14.314C111.346 15.5326 111.371 16.5959 111.185 17.82C111.092 18.4334 110.944 18.9378 110.69 19.5021L114.446 23.5861C116.022 22.4186 117.152 20.7501 117.649 18.856C118.007 17.5746 118.111 16.4296 117.991 15.1046C117.834 13.0261 116.897 11.0832 115.367 9.66295C113.983 8.29881 112.196 7.4147 110.269 7.14114Z" fill="#3C3F47" fill-opacity="0.6"/>
<path d="M125.417 9.31673C126.229 8.59841 127.144 8.00565 128.131 7.55827C129.744 6.78625 131.589 6.64993 133.297 7.17659C134.217 7.4292 135.057 7.91036 135.739 8.57503C136.421 9.23971 136.923 10.0662 137.198 10.977C137.481 11.8421 137.621 12.7471 137.613 13.657V24.9111H130.671V14.7911C130.671 14.453 130.627 14.1641 130.529 13.8424C130.447 13.5629 130.304 13.3056 130.108 13.0897C129.912 12.8739 129.67 12.7052 129.4 12.5964C128.811 12.3436 128.15 12.3149 127.541 12.5159C126.932 12.7169 126.419 13.1336 126.098 13.687C125.823 14.1414 125.68 14.6637 125.688 15.1946V24.9111H118.964V7.47376H125.27L125.417 9.31673Z" fill="#3C3F47" fill-opacity="0.6"/>
<path d="M138.958 0.5V5.10742H145.494V0.5H138.958ZM138.958 7.47655V24.9138H145.494V7.47655H138.958ZM163.05 22.651C161.805 23.9948 160.158 24.9022 158.354 25.2383C157.086 25.4945 155.976 25.5491 154.689 25.4155C153.055 25.2697 151.496 24.6626 150.195 23.6652C149.117 22.8804 148.219 21.8746 147.563 20.7154C147.038 19.828 146.688 18.8491 146.53 17.831C146.284 16.3479 146.349 15.0447 146.74 13.5943C147.634 10.2955 150.119 7.95911 153.472 7.2639C155.386 6.86859 157.086 6.90949 158.98 7.39749C160.27 7.71377 161.455 8.36137 162.416 9.2759C163.031 9.83566 163.541 10.5015 163.919 11.2415C164.389 12.1096 164.604 13.0924 164.54 14.0769H158.562C158.506 13.6955 158.375 13.329 158.176 12.9986C157.977 12.6682 157.714 12.3805 157.403 12.1521C157.007 11.8425 156.524 11.6631 156.021 11.6387C155.518 11.6143 155.02 11.7461 154.596 12.0158C154.003 12.3707 153.564 12.9337 153.366 13.5943C152.854 15.1455 152.828 16.8151 153.289 18.3817C153.467 19.0453 153.83 19.6449 154.336 20.1101C154.617 20.3856 154.959 20.5909 155.334 20.7093C155.709 20.8278 156.107 20.856 156.496 20.7917C156.986 20.7289 157.435 20.4882 157.758 20.1156C158.105 19.7416 158.333 19.2741 158.414 18.7715C158.48 18.4035 158.515 18.09 158.537 17.7165H164.838C164.912 18.6188 164.791 19.5265 164.483 20.378C164.174 21.2295 163.686 22.0047 163.05 22.651Z" fill="#3C3F47" fill-opacity="0.6"/>
</g>
<defs>
<clipPath id="clip0_126_571">
<rect width="164" height="25" fill="white" transform="translate(0.854004 0.5)"/>
</clipPath>
</defs>
</svg>
