<svg width="161" height="36" viewBox="0 0 161 36" fill="none" xmlns="http://www.w3.org/2000/svg">
<path d="M31.8795 24.1589V9.22046H26.3276V24.1589H31.8795Z" fill="#3C3F47" fill-opacity="0.6"/>
<path d="M95.7609 9.22046L88.2715 9.2215L85.9661 15.4047C85.7766 15.9161 85.7211 16.8933 85.7211 16.8933C85.7211 16.8933 85.6408 15.9012 85.4574 15.4047L83.1708 9.2215L75.7091 9.22046L75.7021 24.1609L80.4905 24.1589V15.2715C80.4905 15.2715 80.4905 15.7989 80.6948 16.2746L84.084 24.1609H87.3582L90.7475 16.0919C90.9487 15.6132 90.9487 15.0858 90.9487 15.0858V24.1589H95.7609V9.22046Z" fill="#3C3F47" fill-opacity="0.6"/>
<path d="M137.186 9.22046H131.947V17.4227C131.947 17.4227 131.947 16.8953 131.603 16.4941L125.377 9.22046H119.856V24.1589H125.377V15.9578C125.377 15.9578 125.377 16.4842 125.707 16.8844L131.702 24.162L137.186 24.1589V9.22046Z" fill="#3C3F47" fill-opacity="0.6"/>
<path d="M118.064 24.1609L110.522 9.22241H104.659L97.1167 24.1609H102.183H102.98L104.374 21.398L110.805 21.399L112.201 24.1609H112.431V24.1619H117.555L117.554 24.1609H118.064ZM105.785 17.6163C105.785 17.6163 107.126 14.9527 107.358 14.491C107.59 14.0291 107.59 13.5027 107.59 13.5027C107.59 13.5027 107.59 14.0291 107.823 14.4929L109.402 17.6311L105.785 17.6163Z" fill="#3C3F47" fill-opacity="0.6"/>
<path d="M42.1583 20.1746L42.1593 18.1019H50.4866V14.7403H42.1593V12.8891H52.2952V9.2215L36.897 9.22046V24.1589H52.6998V20.1756L42.1583 20.1746Z" fill="#3C3F47" fill-opacity="0.6"/>
<path d="M1.66699 9.21948L9.64325 24.1788H16.0697L23.9409 9.22045H17.7078L13.2625 18.3175C13.0325 18.7872 13.0325 19.3135 13.0325 19.3135C13.0325 19.3135 13.0325 18.7872 12.7965 18.3045L8.35224 9.22045L1.66699 9.21948Z" fill="#3C3F47" fill-opacity="0.6"/>
<path d="M71.8489 1.42937L59.6098 1.42041C59.6098 1.42041 54.8096 1.5386 54.8096 6.28574C54.8096 11.1689 59.6098 11.0586 59.6098 11.0586L66.8831 11.0487C66.8831 11.0487 67.8429 11.0487 67.8429 12.0567C67.8429 12.9297 66.8801 12.9297 66.8801 12.9297H55.1447V17.0263L67.3045 17.0273C67.3045 17.0273 72.4805 17.2249 72.4805 11.8889C72.4805 7.29673 67.3045 7.16168 67.3045 7.16168H60.412C60.412 7.16168 59.3421 7.16168 59.3421 6.2867C59.3421 5.44057 60.412 5.44057 60.412 5.44057H71.8489V1.42937Z" fill="#3C3F47" fill-opacity="0.6"/>
<path d="M159.207 9.22241H153.968V17.4246C153.968 17.4246 153.968 16.8972 153.625 16.496L147.399 9.22241H141.878V24.1619H147.399V15.9597C147.399 15.9597 147.399 16.4871 147.729 16.8873L153.724 24.1639L159.207 24.1619V9.22241Z" fill="#3C3F47" fill-opacity="0.6"/>
<path d="M71.8533 19.2816L59.6142 19.2737C59.6142 19.2737 54.813 19.3908 54.813 24.139C54.813 29.0211 59.6142 28.9109 59.6142 28.9109L66.8865 28.9019C66.8865 28.9019 67.8463 28.9019 67.8463 29.9099C67.8463 30.7829 66.8845 30.7829 66.8845 30.7829H55.1491V34.8796H67.3079C67.3079 34.8796 72.4849 35.0782 72.4849 29.7421C72.4849 25.1489 67.3079 25.0148 67.3079 25.0148L60.4164 25.0139C60.4164 25.0139 59.3465 25.0139 59.3465 24.139C59.3465 23.2928 60.4164 23.2928 60.4164 23.2928L71.8533 23.2938V19.2816Z" fill="#3C3F47" fill-opacity="0.6"/>
</svg>
