<svg width="180" height="40" viewBox="0 0 180 40" fill="none" xmlns="http://www.w3.org/2000/svg">
<g clip-path="url(#clip0_126_560)">
<path fill-rule="evenodd" clip-rule="evenodd" d="M76.6146 19.332C77.6962 18.9145 78.6242 18.1774 79.2743 17.2193C79.9245 16.2613 80.2657 15.128 80.2524 13.9711C80.2524 9.14639 76.8213 6.75464 72.1086 6.75464H59.748V32.9897H73.1834C77.3173 32.9897 81.3686 30.1031 81.3686 25.6907C81.3686 20.4454 76.6146 19.3814 76.6146 19.332ZM66.197 12.1979H70.9924C71.2995 12.179 71.6073 12.2206 71.8982 12.3204C72.1891 12.4202 72.4574 12.5763 72.6878 12.7796C72.9182 12.983 73.1061 13.2297 73.2408 13.5057C73.3755 13.7816 73.4543 14.0813 73.4728 14.3876C73.4728 14.4811 73.4728 14.5759 73.4728 14.6722C73.4597 15.3171 73.1917 15.9308 72.7271 16.3796C72.2626 16.8283 71.639 17.0758 70.9924 17.068H66.1557L66.197 12.1979ZM71.0337 27.4969H66.2384V22.3423H70.9097C73.2661 22.3423 74.3822 23.3732 74.3822 24.899C74.3822 26.8041 72.9767 27.4969 71.0337 27.4969Z" fill="#3C3F47" fill-opacity="0.6"/>
<path fill-rule="evenodd" clip-rule="evenodd" d="M95.5892 6.09497C87.9827 6.09497 83.5181 12.1568 83.5181 19.8269C83.5181 27.497 87.9827 33.5589 95.5892 33.5589C103.196 33.5589 107.66 27.5383 107.66 19.8269C107.66 12.1156 103.237 6.09497 95.5892 6.09497ZM95.5892 27.2908C91.8686 27.2908 90.0084 23.9506 90.0084 19.8269C90.0084 15.7032 91.8686 12.4042 95.5892 12.4042C99.3098 12.4042 101.211 15.7445 101.211 19.8269C101.211 23.9919 99.3098 27.2908 95.5892 27.2908Z" fill="#3C3F47" fill-opacity="0.6"/>
<path fill-rule="evenodd" clip-rule="evenodd" d="M121.674 17.064L120.765 16.8578C118.533 16.4042 116.755 15.8269 116.755 14.2187C116.755 12.4867 118.45 11.7857 119.938 11.7857C120.954 11.8008 121.955 12.0246 122.88 12.4432C123.804 12.8619 124.632 13.4663 125.312 14.2187L129.405 10.1774C127.545 8.07433 124.527 6.05371 119.814 6.05371C114.275 6.05371 110.058 9.14649 110.058 14.3011C110.058 19.0022 113.448 21.3114 117.582 22.1774L118.491 22.3836C121.922 23.0846 123.204 23.6207 123.204 25.2702C123.204 26.8372 121.798 27.8681 119.649 27.8681C117.086 27.8681 114.771 26.7547 112.993 24.4867L108.818 28.6104C111.133 31.3733 114.068 33.5176 119.731 33.5176C124.651 33.5176 129.901 30.7135 129.901 24.9815C129.984 19.0022 125.436 17.8475 121.674 17.064Z" fill="#3C3F47" fill-opacity="0.6"/>
<path fill-rule="evenodd" clip-rule="evenodd" d="M144.618 27.2909C141.724 27.2909 138.706 24.8991 138.706 19.662C138.706 15.0022 141.517 12.4043 144.452 12.4043C146.767 12.4043 148.132 13.4764 149.207 15.3321L154.498 11.827C151.852 7.82695 148.71 6.13623 144.37 6.13623C136.433 6.13623 132.133 12.2806 132.133 19.7032C132.133 27.4971 136.887 33.6001 144.287 33.6001C149.496 33.6001 151.976 31.7857 154.663 27.9094L149.331 24.33C148.256 26.0538 147.098 27.2909 144.618 27.2909Z" fill="#3C3F47" fill-opacity="0.6"/>
<path fill-rule="evenodd" clip-rule="evenodd" d="M172.15 6.75464V16.4041H164.172V6.75464H157.268V32.9814H164.172V22.6309H172.15V32.9814H179.054V6.75464H172.15Z" fill="#3C3F47" fill-opacity="0.6"/>
<path d="M19.9794 0.0742188C16.0384 0.0742187 12.186 1.23994 8.90927 3.42398C5.63251 5.60801 3.07859 8.71226 1.57047 12.3442C0.0623444 15.9761 -0.33225 19.9726 0.436585 23.8282C1.20542 27.6838 3.10315 31.2254 5.8898 34.0052C8.67645 36.7849 12.2269 38.6779 16.0921 39.4449C19.9573 40.2118 23.9636 39.8182 27.6046 38.3138C31.2455 36.8094 34.3575 34.2618 36.5469 30.9932C38.7364 27.7245 39.905 23.8817 39.905 19.9505C39.905 14.679 37.8057 9.62338 34.0689 5.89585C30.3321 2.16832 25.264 0.0742188 19.9794 0.0742188ZM19.9794 37.9711C16.4064 37.9711 12.9136 36.9142 9.94278 34.9341C6.97195 32.954 4.65646 30.1395 3.28914 26.8467C1.92182 23.5539 1.56406 19.9305 2.26112 16.4349C2.95817 12.9392 4.67873 9.72823 7.20522 7.20801C9.7317 4.68778 12.9506 2.97148 16.455 2.27615C19.9593 1.58082 23.5917 1.93769 26.8927 3.30163C30.1937 4.66557 33.0151 6.97531 35.0002 9.93879C36.9852 12.9023 38.0447 16.3864 38.0447 19.9505C38.0436 24.7295 36.14 29.3125 32.7523 32.6918C29.3646 36.0711 24.7703 37.97 19.9794 37.9711Z" fill="#3C3F47" fill-opacity="0.6"/>
<path d="M28.2059 7.53809H26.8417V14.3422H13.1583V7.53809H11.7528C9.69412 8.89285 8.00458 10.736 6.83559 12.9022C5.6666 15.0685 5.05469 17.4903 5.05469 19.9505C5.05469 22.4106 5.6666 24.8324 6.83559 26.9987C8.00458 29.165 9.69412 31.0081 11.7528 32.3628H13.1583V25.567H26.8417V32.3711H28.2059C30.2655 31.017 31.9559 29.1741 33.1255 27.0077C34.2951 24.8414 34.9074 22.4193 34.9074 19.9587C34.9074 17.4981 34.2951 15.076 33.1255 12.9097C31.9559 10.7433 30.2655 8.90044 28.2059 7.54633V7.53809ZM11.2567 29.6907C9.97463 28.5543 8.92949 27.1772 8.18098 25.6379C7.43247 24.0986 6.99525 22.4273 6.89429 20.7194C6.79333 19.0116 7.0306 17.3006 7.59257 15.6842C8.15453 14.0678 9.03017 12.5777 10.1695 11.2989C10.511 10.9184 10.874 10.5577 11.2567 10.2185V29.6907ZM26.8417 23.67H13.1583V16.1979H26.8417V23.67ZM28.702 29.6494V25.5257V14.3422V10.2185C29.9809 11.3641 31.0211 12.7498 31.7629 14.2965C32.5048 15.8433 32.9339 17.5207 33.0256 19.2328C33.1174 20.945 32.87 22.6585 32.2977 24.2753C31.7253 25.8921 30.8392 27.3805 29.69 28.6556C29.3774 29.0004 29.0476 29.3294 28.702 29.6412V29.6494Z" fill="#3C3F47" fill-opacity="0.6"/>
</g>
<defs>
<clipPath id="clip0_126_560">
<rect width="179" height="40" fill="white" transform="translate(0.0537109)"/>
</clipPath>
</defs>
</svg>
