<svg width="154" height="30" viewBox="0 0 154 30" fill="none" xmlns="http://www.w3.org/2000/svg">
<path fill-rule="evenodd" clip-rule="evenodd" d="M36.3261 13.1262C36.4186 13.7459 36.4884 14.3639 36.4884 14.9978C36.4884 23.2716 28.3801 30.0002 18.4591 30.0002C16.9993 30.0002 15.5739 29.8677 14.2129 29.5713C14.7782 28.3856 16.0428 25.7407 18.0938 20.9838C21.0926 14.0257 15.6743 13.7348 15.6743 13.7348L15.795 13.1262H36.3261Z" fill="#3C3F47" fill-opacity="0.6"/>
<path fill-rule="evenodd" clip-rule="evenodd" d="M18.4591 0C26.4686 0 33.2723 4.38562 35.6071 10.4071H16.1517L8.20411 27.3331C3.53137 24.6014 0.454102 20.0975 0.454102 14.9977C0.454102 6.73255 8.53732 0 18.4591 0ZM153.244 6.09319H138.599C138.599 6.09319 128.719 5.64699 127.474 16.2464C126.229 26.8474 131.58 28.5779 136.767 28.5779H148.287L149.034 25.6412H138.71C138.71 25.6412 133.744 25.2124 134.494 18.0399C134.501 17.9808 134.509 17.9232 134.509 17.8823H149.46L150.271 15.3201H134.919C135.991 10.2983 138.326 8.70028 141.683 8.70028H152.433L153.244 6.09319ZM128.16 6.09319H113.527C113.527 6.09319 103.636 5.64699 102.394 16.2464C101.148 26.8474 106.489 28.5779 111.685 28.5779H123.195L123.943 25.6412H113.624C113.624 25.6412 108.653 25.2124 109.4 18.0399C109.419 17.9896 109.43 17.9363 109.431 17.8823H124.382L125.187 15.3201H109.836C110.908 10.2983 113.256 8.70028 116.612 8.70028H127.354L128.16 6.09319ZM77.5018 6.09319H95.0999C95.0999 6.09319 102.3 5.80939 101.138 11.793C99.9537 17.7979 94.9313 18.0257 93.7647 18.0257L99.488 28.6141H94.2822C94.2822 28.6141 91.5381 29.4916 89.1429 25.0295C86.7454 20.5587 83.9473 15.2696 83.9473 15.2696H89.1429C89.1429 15.2696 92.8827 15.3769 93.9388 12.4529C94.9878 9.50835 92.8255 8.85559 91.0638 8.85559H84.2295L78.848 28.7355H71.4869L77.5018 6.09319ZM73.6798 6.03013H56.2432C56.2432 6.03013 46.9118 5.85196 44.0188 16.5704C44.0188 16.5704 40.2955 27.2968 51.2553 28.5747H64.1837C64.1837 28.5747 68.1775 29.2724 69.8491 22.6313C71.5355 15.9863 71.6468 15.2357 71.6468 15.2357H59.0767L58.0974 18.2662H63.9995L62.484 23.5639C62.484 23.5639 62.0896 25.4993 60.5161 25.5979C58.9559 25.724 54.8986 25.5979 54.8986 25.5979C54.8986 25.5979 51.2553 25.7918 50.9041 21.7129C50.5591 17.6182 52.6469 9.18433 59.1848 9.18433H72.6198L73.6798 6.03013Z" fill="#3C3F47" fill-opacity="0.6"/>
</svg>
