<svg width="105" height="40" viewBox="0 0 105 40" fill="none" xmlns="http://www.w3.org/2000/svg">
<g clip-path="url(#clip0_126_556)">
<path d="M47.9689 19.6137V33.9717H51.3518V19.6137H47.9689ZM41.8797 14.1409H38.4001C38.0135 14.1409 38.0779 14.495 38.0779 14.495C38.1424 14.9457 38.239 15.6862 38.239 17.2314C38.239 20.6439 37.8202 25.5372 34.0829 30.2051L33.8251 30.527C33.8251 30.527 31.5699 14.817 31.5377 14.5272C31.5377 14.5272 31.5377 14.1731 31.2155 14.1731H27.7037C27.3815 14.1731 27.3815 14.5272 27.3815 14.5272C27.2849 16.33 26.2861 31.4606 15.2353 33.9073C17.5872 34.1648 20.4224 33.4244 22.9032 31.9113C25.9639 30.0119 28.0259 27.2112 28.7025 23.9919C28.7025 23.9919 30.0556 32.4264 30.2167 34.358V34.4867L30.1201 34.5511C27.0271 36.193 23.5154 37.0944 20.0036 37.0944C11.3047 37.0944 3.60458 31.9435 0.22168 24.0885C2.2192 33.3278 10.467 40.0561 20.1002 40.0561C31.3444 40.0561 38.0457 30.6558 39.2056 23.9597C39.2056 23.9597 40.7198 33.7141 40.752 34.036H45.3592C45.2948 33.6175 42.2341 14.8814 42.2019 14.5916C42.2019 14.5916 42.2019 14.2375 41.8797 14.2375V14.1409ZM2.928 22.3501C2.928 12.0484 11.6269 3.67827 22.2911 3.67827C28.8958 3.67827 35.0494 6.99413 38.6256 12.3703C36.016 5.03037 28.7347 0.00830078 20.5835 0.00830078C10.0482 0.00830078 1.47819 8.21745 1.47819 18.2938C1.47819 21.0624 2.15477 23.7666 3.41127 26.2454C3.12131 24.9899 2.928 23.67 2.928 22.3823V22.3501ZM83.6665 21.674C82.4422 20.2575 80.7347 19.5171 78.6727 19.5171C76.5786 19.5171 74.8066 20.1932 73.389 21.5453C72.0036 22.8652 71.2948 24.6358 71.2948 26.8249C71.2948 28.9818 71.9714 30.7202 73.3245 32.0079C74.6777 33.2956 76.643 33.9395 79.0916 33.9395C83.8598 33.9395 84.8908 30.6558 85.2774 29.5934L84.0532 29.2071C82.9577 31.2031 80.5092 31.3319 79.0593 31.2353C78.0284 31.1709 77.094 30.8168 76.353 30.3017C75.612 29.7544 75.0965 28.9818 74.871 27.7906L74.8066 27.34H85.503C85.4707 24.9899 84.8586 23.0905 83.6665 21.7062V21.674ZM75.0643 25.3118C74.9032 25.3118 74.9032 25.1508 74.9032 25.0865C75.0321 24.2494 75.3543 23.6056 75.9342 23.0261C76.5786 22.3501 77.5773 21.9638 78.6405 21.9638C79.6071 21.9638 80.3803 22.2535 81.0569 22.8008C81.6046 23.2837 81.9912 23.9597 82.2167 24.8933C82.2489 24.9899 82.3134 25.2796 82.0556 25.2796H75.0643V25.3118ZM94.4274 19.4527C90.3679 19.4527 88.9181 21.9316 88.467 23.0905C88.467 23.1227 88.3059 23.509 88.3059 23.509L89.6591 23.9597C89.6591 23.9597 90.529 21.4487 93.9763 21.6096C97.4559 21.7384 97.037 24.6036 97.037 25.0543C95.104 24.4748 92.3654 24.5392 90.5612 25.344C88.3059 26.3742 87.9515 28.4345 88.0482 29.9476C88.1449 32.2011 90.1424 33.7785 92.7198 33.9073C95.0395 34.036 96.0705 33.521 97.037 32.5874L97.0048 33.9073H100.066V30.1407V25.505V24.7001V24.0241C100.13 22.3179 98.9379 19.4205 94.4274 19.4205V19.4527ZM97.0048 30.5914C97.0048 30.8168 96.9404 30.9777 96.7471 31.0743C96.1672 31.364 94.9429 31.7504 93.4286 31.6538C91.8499 31.525 91.2378 30.3983 91.1411 29.9154C91.1089 29.7222 90.7545 27.6297 92.7843 26.9858C94.1052 26.5673 95.7805 26.8249 96.6826 27.0824C96.9404 27.1468 97.0048 27.3078 97.0048 27.6297V30.6236V30.5914ZM51.1263 14.1409H48.3233C47.9045 14.1409 47.9689 14.5594 47.9689 14.5594C47.9689 15.0101 47.9689 17.1348 47.9689 17.5855H51.4162V14.5272C51.4162 14.5272 51.4484 14.1731 51.094 14.1731L51.1263 14.1409ZM68.3307 14.1409H65.4633C65.1734 14.1409 65.1734 14.4628 65.1734 14.4628V20.3541L64.7545 20.1288C64.3035 19.9034 63.8524 19.7425 63.3691 19.6459C62.8859 19.5493 62.3059 19.5171 61.6616 19.5171C59.4063 19.5171 57.5699 20.161 56.2167 21.4809C54.8958 22.7686 54.187 24.6358 54.187 26.9214C54.187 28.9496 54.7669 30.6558 55.8945 32.0079C57.0222 33.3278 58.6653 34.0038 60.8239 34.0038C63.9168 34.0038 65.1411 32.1367 65.1411 32.1367V33.9395H68.6207V30.5592C68.6207 26.7605 68.6207 14.495 68.6207 14.495C68.6207 14.495 68.6207 14.1409 68.3307 14.1409ZM64.98 30.0441C64.6579 30.3339 64.239 30.5592 63.7235 30.7524C63.1758 30.9777 62.5315 31.0743 61.8227 31.0743C60.6628 31.0743 59.7285 30.688 59.0519 29.9154C58.3753 29.1427 58.0532 28.016 58.0532 26.5029C58.0532 25.0221 58.3753 23.9275 58.9875 23.2515C59.6318 22.5432 60.5984 22.1891 61.8871 22.1891C62.5637 22.1891 63.208 22.2857 63.788 22.511C64.3035 22.7042 64.6901 22.8974 64.98 23.1549C65.0767 23.2515 65.1734 23.4124 65.1734 23.6378V29.5291C65.1734 29.7544 65.0767 29.9154 64.98 30.0119V30.0441Z" fill="#3C3F47" fill-opacity="0.6"/>
<path d="M102.16 11.7585C100.968 11.7585 100.065 12.6599 100.065 13.8511C100.065 15.01 100.968 15.9436 102.16 15.9436C103.352 15.9436 104.254 15.0422 104.254 13.8511C104.254 12.6921 103.352 11.7585 102.16 11.7585ZM102.16 12.0483C103.158 12.0483 103.932 12.8531 103.932 13.8511C103.932 14.849 103.191 15.6539 102.16 15.6539C101.161 15.6539 100.388 14.849 100.388 13.8511C100.388 12.8531 101.129 12.0483 102.16 12.0483ZM101.709 13.9798H102.224L102.901 15.0422H103.255L102.546 13.9798C102.868 13.9155 103.158 13.7223 103.158 13.3038C103.158 12.8853 102.933 12.6277 102.385 12.6277H101.451V15.0422H101.741V13.9798H101.709ZM101.709 13.7223V12.8853H102.256C102.546 12.8853 102.836 12.9497 102.836 13.3038C102.836 13.7223 102.482 13.7223 102.127 13.7223H101.741H101.709Z" fill="#3C3F47" fill-opacity="0.6"/>
</g>
<defs>
<clipPath id="clip0_126_556">
<rect width="104" height="40" fill="white" transform="translate(0.253906)"/>
</clipPath>
</defs>
</svg>
