<svg width="137" height="40" viewBox="0 0 137 40" fill="none" xmlns="http://www.w3.org/2000/svg">
<path d="M15.2467 39.7256H0L7.60235 26.4849H22.8491" fill="#3C3F47" fill-opacity="0.6"/>
<path d="M30.4515 39.7256H45.6579L38.0556 26.4849H22.8491" fill="#3C3F47" fill-opacity="0.6"/>
<path d="M30.4513 13.2407L22.8489 0L15.2466 13.239L22.8489 26.4849" fill="#3C3F47" fill-opacity="0.6"/>
<path d="M52.4988 34.0856H58.6132V31.8703H52.497V29.1364H59.3764V26.9141H49.9238V39.7258H59.5375V37.5035H52.497" fill="#3C3F47" fill-opacity="0.6"/>
<path d="M52.3358 15.2557L55.0315 24.7796H57.526L60.2217 15.2557V24.7796H62.6356V11.9714H58.9334L56.2796 20.9609L53.6241 11.9714H49.9219V24.7796H52.3375" fill="#3C3F47" fill-opacity="0.6"/>
<path d="M108.455 24.7796H111.03V11.9714H108.456V24.7796H108.455Z" fill="#3C3F47" fill-opacity="0.6"/>
<path d="M110.546 39.7258H113.121V26.9141H110.548V39.7258H110.546Z" fill="#3C3F47" fill-opacity="0.6"/>
<path d="M133.879 24.7796H136.454V11.9714H133.881V24.7796H133.879Z" fill="#3C3F47" fill-opacity="0.6"/>
<path d="M63.6406 24.7796H66.2138V11.9714H63.6406V24.7796Z" fill="#3C3F47" fill-opacity="0.6"/>
<path d="M130.299 16.9664H125.191V11.9714H122.656V24.7796H125.191V19.1834H130.299V24.7796H132.793V11.9714H130.299" fill="#3C3F47" fill-opacity="0.6"/>
<path d="M70.0385 24.7796H72.652V14.185H75.7504V11.9714H66.8999V14.1867H70.0368" fill="#3C3F47" fill-opacity="0.6"/>
<path d="M93.4496 39.7258H96.0649V29.1364H99.2035V26.9141H90.353V29.1364H93.4514" fill="#3C3F47" fill-opacity="0.6"/>
<path d="M91.7201 25.1348C94.9795 25.1348 96.7895 23.6403 96.7895 20.7745V11.9732H94.2163V21.0154C94.2163 22.1195 93.2885 23.0373 91.7201 23.0373C89.749 23.0373 89.1854 21.949 89.1854 21.0154V11.9714H86.6909V20.7763C86.6909 23.8584 88.5814 25.1365 91.7201 25.1365" fill="#3C3F47" fill-opacity="0.6"/>
<path d="M72.2898 34.0856H78.364V31.8703H72.2898V29.1364H79.1289V26.9141H69.7148V39.7258H79.3303V37.5035H72.2898" fill="#3C3F47" fill-opacity="0.6"/>
<path d="M103.468 14.0039C104.15 14.0039 104.956 14.6579 104.956 15.5194C104.958 15.7357 104.916 15.9501 104.834 16.1499C104.751 16.3496 104.629 16.5304 104.475 16.6814C104.321 16.8325 104.138 16.9505 103.937 17.0285C103.736 17.1065 103.522 17.1428 103.307 17.1352H100.249V14.0039H103.468ZM103.266 22.8404H100.249V19.1271H103.224C104.311 19.1271 105.197 19.746 105.197 20.9908C105.197 22.0404 104.392 22.8404 103.266 22.8404ZM100.329 24.7796H104.031C106.444 24.7796 107.853 23.3379 107.853 21.3161C107.853 19.6898 106.685 18.292 105.398 17.9668C106.524 17.6855 107.41 16.5339 107.41 15.1185C107.41 13.232 106.043 11.9714 103.468 11.9714H97.7139V24.7796" fill="#3C3F47" fill-opacity="0.6"/>
<path d="M102.423 32.6015V29.1168H105.519C106.564 29.1168 107.249 29.8552 107.249 30.8662C107.249 31.5817 106.645 32.6032 105.6 32.6032H102.421L102.423 32.6015ZM107.531 33.5755C108.616 33.245 109.783 32.2569 109.783 30.4811C109.783 28.2026 108.254 26.8962 105.64 26.8962H99.8057V39.7044H102.421V34.6585H104.593C105.922 34.6585 106.645 35.3495 106.846 36.262C107.088 37.2694 107.047 38.7673 107.289 39.7044H109.904C109.663 38.7234 109.502 37.3907 109.421 36.3393C109.341 34.6058 108.415 33.9113 107.531 33.5755Z" fill="#3C3F47" fill-opacity="0.6"/>
<path d="M62.956 26.9141H60.3828V39.7258H68.9514V37.5035H62.956" fill="#3C3F47" fill-opacity="0.6"/>
<path d="M80.0954 19.366C82.147 19.7247 83.3128 20.1132 83.3128 21.3527C83.3128 22.1896 82.5076 22.9896 80.7781 22.9896C79.0486 22.9896 78.1629 22.012 78.1629 20.8446H75.7104C75.7104 23.074 77.1598 25.1064 80.9006 25.1064C84.4401 25.1064 86.0103 23.2129 86.0103 21.0503C86.0103 19.0284 84.6817 17.7485 82.3483 17.2808C80.0551 16.836 78.527 16.7428 78.527 15.3011C78.527 14.3113 79.4127 13.7205 80.8201 13.7205C82.2678 13.7205 83.1132 14.4519 83.1132 15.6809H85.6077C85.6077 13.659 84.0795 11.5791 80.6993 11.5791C78.3659 11.5791 75.952 12.9329 75.952 15.4646C75.952 17.592 77.4819 18.9089 80.0972 19.366" fill="#3C3F47" fill-opacity="0.6"/>
<path d="M116.019 19.366C118.11 19.7247 119.276 20.1132 119.276 21.3527C119.276 22.1896 118.432 22.9896 116.743 22.9896C115.012 22.9896 114.128 22.012 114.128 20.8446H111.674C111.674 23.074 113.081 25.1064 116.864 25.1064C120.404 25.1064 121.972 23.2129 121.972 21.0503C121.972 19.0284 120.645 17.7485 118.271 17.2808C116.019 16.836 114.45 16.7428 114.45 15.3011C114.45 14.3113 115.374 13.7205 116.743 13.7205C118.231 13.7205 119.075 14.4519 119.075 15.6809H121.569C121.569 13.659 120.041 11.5791 116.663 11.5791C114.329 11.5791 111.875 12.9329 111.875 15.4646C111.875 17.592 113.444 18.9089 116.019 19.366Z" fill="#3C3F47" fill-opacity="0.6"/>
<path d="M85.1223 37.7462C83.0708 37.7462 81.8647 35.7014 81.8647 33.2646C81.8647 30.8278 83.0305 28.7848 85.1223 28.7848C86.7328 28.7848 87.538 29.7659 87.8584 30.9737H90.5541C90.1112 28.4648 88.1804 26.6064 85.0821 26.6064C81.1803 26.6064 79.1689 29.6041 79.1689 33.298C79.1689 37.0024 81.2608 40.0001 85.0821 40.0001C88.1402 40.0001 90.1918 38.2156 90.5541 35.4746H87.8584C87.5363 36.7633 86.6908 37.7462 85.1223 37.7462Z" fill="#3C3F47" fill-opacity="0.6"/>
<path d="M119.719 37.7462C117.627 37.7462 116.421 35.7014 116.421 33.2646C116.421 30.8278 117.587 28.7848 119.719 28.7848C121.287 28.7848 122.093 29.7659 122.455 30.9737H125.111C124.668 28.4648 122.737 26.6064 119.638 26.6064C115.737 26.6064 113.766 29.6041 113.766 33.298C113.766 37.0024 115.817 40.0001 119.638 40.0001C122.697 40.0001 124.748 38.2156 125.151 35.4746H122.455C122.093 36.7633 121.247 37.7462 119.719 37.7462Z" fill="#3C3F47" fill-opacity="0.6"/>
</svg>
